<svg width="48" height="48" viewBox="0 0 48 48" fill="none" xmlns="http://www.w3.org/2000/svg">
<circle cx="24" cy="24" r="24" fill="#FF98E5"/>
<mask id="mask0_206_88" style="mask-type:luminance" maskUnits="userSpaceOnUse" x="0" y="0" width="48" height="48">
<circle cx="24" cy="24" r="24" fill="white"/>
</mask>
<g mask="url(#mask0_206_88)">
<circle cx="24" cy="24" r="24" fill="#3D42DF"/>
<path d="M36.9037 26.7906V29.1196L33.2616 32.5232L24.0299 23.3738V16.7198L30.4673 13.9636V20.4116L36.9037 26.7906Z" fill="#B3E5FC"/>
<path d="M33.2615 32.5232L28.4512 36.9863L17.5802 26.2122V13.9636L24.0299 16.7198V23.3738L33.2615 32.5232Z" fill="#4FC3F7"/>
<path d="M28.4471 36.9863L25.0774 40.1322C24.486 40.6838 23.5636 40.6838 22.9722 40.1322L11.1428 29.1196V13.5222C11.1435 13.01 11.404 12.5326 11.836 12.2516C12.268 11.9706 12.8136 11.9237 13.2879 12.1268L17.5802 13.9636V26.2122L28.4471 36.9863Z" fill="#2196F3"/>
<path d="M36.9037 13.5222V26.7906L30.4673 20.4116V13.9636L34.7585 12.1268C35.2329 11.9237 35.7785 11.9706 36.2105 12.2516C36.6425 12.5326 36.903 13.01 36.9037 13.5222Z" fill="#2196F3"/>
</g>
</svg>
