<?xml version="1.0" encoding="UTF-8"?>
<!DOCTYPE svg PUBLIC "-//W3C//DTD SVG 1.1//EN" "http://www.w3.org/Graphics/SVG/1.1/DTD/svg11.dtd">
<svg xmlns="http://www.w3.org/2000/svg" version="1.1" width="1272px" height="379px" style="shape-rendering:geometricPrecision; text-rendering:geometricPrecision; image-rendering:optimizeQuality; fill-rule:evenodd; clip-rule:evenodd" xmlns:xlink="http://www.w3.org/1999/xlink">
<g><path style="opacity:0.013" fill="#110b1a" d="M 180.5,98.5 C 180.5,98.1667 180.5,97.8333 180.5,97.5C 180.5,92.5 180.5,87.5 180.5,82.5C 176.167,82.5 171.833,82.5 167.5,82.5C 167.167,82.5 166.833,82.5 166.5,82.5C 168.571,81.1914 171.071,80.5248 174,80.5C 181.893,78.9137 184.726,82.0803 182.5,90C 182.481,93.2515 181.814,96.0849 180.5,98.5 Z"/></g>
<g><path style="opacity:0.008" fill="#060912" d="M 310.5,98.5 C 310.821,92.9738 310.488,87.6405 309.5,82.5C 292.167,82.5 274.833,82.5 257.5,82.5C 249.5,82.5 241.5,82.5 233.5,82.5C 230.5,82.5 227.5,82.5 224.5,82.5C 224.167,82.5 223.833,82.5 223.5,82.5C 237.651,81.1673 252.151,80.5006 267,80.5C 281.5,80.6667 296,80.8333 310.5,81C 311.825,86.9323 311.825,92.7657 310.5,98.5 Z"/></g>
<g><path style="opacity:0.098" fill="#1b1128" d="M 152.5,84.5 C 147.638,83.1002 142.638,82.4335 137.5,82.5C 137.5,87.5 137.5,92.5 137.5,97.5C 142.833,97.5 148.167,97.5 153.5,97.5C 148.025,98.4889 142.358,98.8222 136.5,98.5C 136.192,92.5746 136.525,86.7412 137.5,81C 141.792,81.1279 146.126,81.4612 150.5,82C 151.756,82.4169 152.423,83.2502 152.5,84.5 Z"/></g>
<g><path style="opacity:0.078" fill="#02020e" d="M 210.5,98.5 C 210.821,92.9738 210.488,87.6405 209.5,82.5C 205.154,82.3343 200.821,82.501 196.5,83C 195.956,83.7172 195.289,84.2172 194.5,84.5C 194.414,83.5041 194.748,82.6708 195.5,82C 200.486,81.0836 205.486,80.7503 210.5,81C 211.825,86.9323 211.825,92.7657 210.5,98.5 Z"/></g>
<g><path style="opacity:1" fill="#7768e9" d="M 209.5,82.5 C 209.5,87.5 209.5,92.5 209.5,97.5C 204.5,97.5 199.5,97.5 194.5,97.5C 194.5,93.1667 194.5,88.8333 194.5,84.5C 195.289,84.2172 195.956,83.7172 196.5,83C 200.821,82.501 205.154,82.3343 209.5,82.5 Z"/></g>
<g><path style="opacity:1" fill="#845cea" d="M 167.5,82.5 C 171.833,82.5 176.167,82.5 180.5,82.5C 180.5,87.5 180.5,92.5 180.5,97.5C 176.167,97.5 171.833,97.5 167.5,97.5C 167.5,92.5 167.5,87.5 167.5,82.5 Z"/></g>
<g><path style="opacity:1" fill="#8a4ce0" d="M 152.5,84.5 C 153.436,88.7352 153.769,93.0685 153.5,97.5C 148.167,97.5 142.833,97.5 137.5,97.5C 137.5,92.5 137.5,87.5 137.5,82.5C 142.638,82.4335 147.638,83.1002 152.5,84.5 Z"/></g>
<g><path style="opacity:0.439" fill="#372360" d="M 166.5,82.5 C 166.833,82.5 167.167,82.5 167.5,82.5C 167.5,87.5 167.5,92.5 167.5,97.5C 171.833,97.5 176.167,97.5 180.5,97.5C 180.5,97.8333 180.5,98.1667 180.5,98.5C 175.833,98.5 171.167,98.5 166.5,98.5C 166.5,93.1667 166.5,87.8333 166.5,82.5 Z"/></g>
<g><path style="opacity:0.435" fill="#393070" d="M 209.5,82.5 C 210.488,87.6405 210.821,92.9738 210.5,98.5C 204.974,98.8214 199.64,98.4881 194.5,97.5C 199.5,97.5 204.5,97.5 209.5,97.5C 209.5,92.5 209.5,87.5 209.5,82.5 Z"/></g>
<g><path style="opacity:0.435" fill="#2b3d6e" d="M 223.5,82.5 C 223.833,82.5 224.167,82.5 224.5,82.5C 224.5,87.5 224.5,92.5 224.5,97.5C 232.5,97.5 240.5,97.5 248.5,97.5C 259.167,97.5 269.833,97.5 280.5,97.5C 290.167,97.5 299.833,97.5 309.5,97.5C 309.5,92.5 309.5,87.5 309.5,82.5C 310.488,87.6405 310.821,92.9738 310.5,98.5C 281.5,98.5 252.5,98.5 223.5,98.5C 223.5,93.1667 223.5,87.8333 223.5,82.5 Z"/></g>
<g><path style="opacity:1" fill="#5992f5" d="M 257.5,82.5 C 274.833,82.5 292.167,82.5 309.5,82.5C 309.5,87.5 309.5,92.5 309.5,97.5C 299.833,97.5 290.167,97.5 280.5,97.5C 272.399,93.2752 264.732,88.2752 257.5,82.5 Z"/></g>
<g><path style="opacity:1" fill="#6584f1" d="M 233.5,82.5 C 241.5,82.5 249.5,82.5 257.5,82.5C 264.732,88.2752 272.399,93.2752 280.5,97.5C 269.833,97.5 259.167,97.5 248.5,97.5C 249.952,96.6981 251.618,96.1981 253.5,96C 246.595,91.7245 239.928,87.2245 233.5,82.5 Z"/></g>
<g><path style="opacity:1" fill="#6e78ef" d="M 224.5,82.5 C 227.5,82.5 230.5,82.5 233.5,82.5C 239.928,87.2245 246.595,91.7245 253.5,96C 251.618,96.1981 249.952,96.6981 248.5,97.5C 240.5,97.5 232.5,97.5 224.5,97.5C 224.5,92.5 224.5,87.5 224.5,82.5 Z"/></g>
<g><path style="opacity:0.018" fill="#060a09" d="M 440.5,102.5 C 478.5,102.5 516.5,102.5 554.5,102.5C 554.818,111.751 554.485,120.917 553.5,130C 516.167,130.667 478.833,130.667 441.5,130C 440.201,125.754 439.534,121.254 439.5,116.5C 439.527,111.753 439.86,107.087 440.5,102.5 Z"/></g>
<g><path style="opacity:0.369" fill="#1a2f2c" d="M 441.5,104.5 C 478.663,103.502 515.996,103.168 553.5,103.5C 553.826,112.017 553.493,120.35 552.5,128.5C 552.5,120.5 552.5,112.5 552.5,104.5C 515.5,104.5 478.5,104.5 441.5,104.5 Z"/></g>
<g><path style="opacity:1" fill="#4a796d" d="M 441.5,104.5 C 478.5,104.5 515.5,104.5 552.5,104.5C 552.5,112.5 552.5,120.5 552.5,128.5C 515.5,128.5 478.5,128.5 441.5,128.5C 441.5,120.5 441.5,112.5 441.5,104.5 Z"/></g>
<g><path style="opacity:0.314" fill="#121c1a" d="M 578.5,102.5 C 586.833,102.5 595.167,102.5 603.5,102.5C 603.5,112.167 603.5,121.833 603.5,131.5C 595.167,131.5 586.833,131.5 578.5,131.5C 578.5,121.833 578.5,112.167 578.5,102.5 Z"/></g>
<g><path style="opacity:1" fill="#47756a" d="M 579.5,104.5 C 587.167,104.5 594.833,104.5 602.5,104.5C 602.5,113.167 602.5,121.833 602.5,130.5C 594.833,130.5 587.167,130.5 579.5,130.5C 579.5,121.833 579.5,113.167 579.5,104.5 Z"/></g>
<g><path style="opacity:1" fill="#49786d" d="M 1162.5,164.5 C 1164.48,161.836 1167.15,160.169 1170.5,159.5C 1180.38,157.194 1190.38,156.86 1200.5,158.5C 1206.52,161.956 1212.02,166.289 1217,171.5C 1220.41,176.98 1223.24,182.647 1225.5,188.5C 1225.5,220.833 1225.5,253.167 1225.5,285.5C 1218.17,285.5 1210.83,285.5 1203.5,285.5C 1203.83,255.329 1203.5,225.329 1202.5,195.5C 1202.22,193.272 1201.22,191.605 1199.5,190.5C 1199.33,187.796 1198,186.129 1195.5,185.5C 1193.2,182.676 1190.2,180.843 1186.5,180C 1174.4,178.629 1164.24,182.462 1156,191.5C 1155.5,223.165 1155.33,254.832 1155.5,286.5C 1147.83,286.5 1140.17,286.5 1132.5,286.5C 1132.5,233.5 1132.5,180.5 1132.5,127.5C 1126.5,127.5 1120.5,127.5 1114.5,127.5C 1114.5,119.833 1114.5,112.167 1114.5,104.5C 1128.17,104.5 1141.83,104.5 1155.5,104.5C 1155.33,126.836 1155.5,149.169 1156,171.5C 1158.3,169.272 1160.47,166.939 1162.5,164.5 Z"/></g>
<g><path style="opacity:0.022" fill="#05070c" d="M 381.5,113.5 C 369.204,112.56 356.871,112.227 344.5,112.5C 327.17,112.029 309.837,111.696 292.5,111.5C 277.167,111.5 261.833,111.5 246.5,111.5C 242.833,111.5 239.167,111.5 235.5,111.5C 225.167,111.5 214.833,111.5 204.5,111.5C 177.328,111.169 150.328,111.502 123.5,112.5C 115.167,112.5 106.833,112.5 98.5,112.5C 105.989,111.671 113.656,111.171 121.5,111C 199.5,110.333 277.5,110.333 355.5,111C 363.5,111.333 371.5,111.667 379.5,112C 380.416,112.278 381.082,112.778 381.5,113.5 Z"/></g>
<g><path style="opacity:0.014" fill="#0a000f" d="M 98.5,112.5 C 96.31,113.374 95.31,115.041 95.5,117.5C 95.1667,117.5 94.8333,117.5 94.5,117.5C 93.7564,114.05 95.0897,112.384 98.5,112.5 Z"/></g>
<g><path style="opacity:1" fill="#9c3fe5" d="M 130.5,112.5 C 139.167,112.5 147.833,112.5 156.5,112.5C 162.833,117.167 169.167,121.833 175.5,126.5C 167.167,126.5 158.833,126.5 150.5,126.5C 143.833,121.833 137.167,117.167 130.5,112.5 Z"/></g>
<g><path style="opacity:1" fill="#924ce8" d="M 156.5,112.5 C 165.506,112.334 174.506,112.5 183.5,113C 190.405,117.275 197.072,121.775 203.5,126.5C 194.167,126.5 184.833,126.5 175.5,126.5C 169.167,121.833 162.833,117.167 156.5,112.5 Z"/></g>
<g><path style="opacity:1" fill="#8151db" d="M 123.5,112.5 C 150.328,111.502 177.328,111.169 204.5,111.5C 213.207,115.695 221.54,120.695 229.5,126.5C 220.833,126.5 212.167,126.5 203.5,126.5C 197.072,121.775 190.405,117.275 183.5,113C 174.506,112.5 165.506,112.334 156.5,112.5C 147.833,112.5 139.167,112.5 130.5,112.5C 128.167,112.5 125.833,112.5 123.5,112.5 Z"/></g>
<g><path style="opacity:1" fill="#7e64eb" d="M 204.5,111.5 C 214.833,111.5 225.167,111.5 235.5,111.5C 242.434,116.311 249.434,121.144 256.5,126C 247.506,126.5 238.506,126.666 229.5,126.5C 221.54,120.695 213.207,115.695 204.5,111.5 Z"/></g>
<g><path style="opacity:1" fill="#6e64da" d="M 235.5,111.5 C 239.167,111.5 242.833,111.5 246.5,111.5C 251.651,112.327 256.984,112.827 262.5,113C 269.167,117.333 275.833,121.667 282.5,126C 285.817,126.498 289.15,126.665 292.5,126.5C 292.5,126.833 292.5,127.167 292.5,127.5C 231.833,127.5 171.167,127.5 110.5,127.5C 123.656,126.504 136.99,126.171 150.5,126.5C 158.833,126.5 167.167,126.5 175.5,126.5C 184.833,126.5 194.167,126.5 203.5,126.5C 212.167,126.5 220.833,126.5 229.5,126.5C 238.506,126.666 247.506,126.5 256.5,126C 249.434,121.144 242.434,116.311 235.5,111.5 Z"/></g>
<g><path style="opacity:1" fill="#697cef" d="M 246.5,111.5 C 261.833,111.5 277.167,111.5 292.5,111.5C 292.5,111.833 292.5,112.167 292.5,112.5C 290.621,112.393 290.288,112.893 291.5,114C 297.741,117.943 303.741,122.109 309.5,126.5C 303.833,126.5 298.167,126.5 292.5,126.5C 289.15,126.665 285.817,126.498 282.5,126C 275.833,121.667 269.167,117.333 262.5,113C 256.984,112.827 251.651,112.327 246.5,111.5 Z"/></g>
<g><path style="opacity:1" fill="#608af4" d="M 292.5,112.5 C 300.507,112.334 308.507,112.5 316.5,113C 323.167,117.333 329.833,121.667 336.5,126C 327.506,126.5 318.506,126.666 309.5,126.5C 303.741,122.109 297.741,117.943 291.5,114C 290.288,112.893 290.621,112.393 292.5,112.5 Z"/></g>
<g><path style="opacity:1" fill="#528de8" d="M 292.5,112.5 C 292.5,112.167 292.5,111.833 292.5,111.5C 309.837,111.696 327.17,112.029 344.5,112.5C 351.688,118.259 359.355,123.259 367.5,127.5C 342.5,127.5 317.5,127.5 292.5,127.5C 292.5,127.167 292.5,126.833 292.5,126.5C 298.167,126.5 303.833,126.5 309.5,126.5C 318.506,126.666 327.506,126.5 336.5,126C 329.833,121.667 323.167,117.333 316.5,113C 308.507,112.5 300.507,112.334 292.5,112.5 Z"/></g>
<g><path style="opacity:1" fill="#4b9aee" d="M 344.5,112.5 C 356.871,112.227 369.204,112.56 381.5,113.5C 382.398,121.124 382.731,128.791 382.5,136.5C 382.5,142.167 382.5,147.833 382.5,153.5C 382.167,153.5 381.833,153.5 381.5,153.5C 381.666,148.156 381.499,142.823 381,137.5C 376.618,134.278 372.118,131.278 367.5,128.5C 367.5,128.167 367.5,127.833 367.5,127.5C 359.355,123.259 351.688,118.259 344.5,112.5 Z"/></g>
<g><path style="opacity:1" fill="#b028dc" d="M 98.5,112.5 C 106.833,112.5 115.167,112.5 123.5,112.5C 125.833,112.5 128.167,112.5 130.5,112.5C 137.167,117.167 143.833,121.833 150.5,126.5C 136.99,126.171 123.656,126.504 110.5,127.5C 109.508,134.648 109.175,141.981 109.5,149.5C 104.671,147.529 100.171,144.862 96,141.5C 95.5003,133.507 95.3336,125.507 95.5,117.5C 95.31,115.041 96.31,113.374 98.5,112.5 Z"/></g>
<g><path style="opacity:1" fill="#5696f6" d="M 367.5,128.5 C 372.118,131.278 376.618,134.278 381,137.5C 381.499,142.823 381.666,148.156 381.5,153.5C 381.631,154.239 381.464,154.906 381,155.5C 376.618,152.278 372.118,149.278 367.5,146.5C 367.5,140.5 367.5,134.5 367.5,128.5 Z"/></g>
<g><path style="opacity:0.286" fill="#0e1614" d="M 766.5,102.5 C 805.5,102.5 844.5,102.5 883.5,102.5C 883.818,111.751 883.485,120.917 882.5,130C 843.833,130.667 805.167,130.667 766.5,130C 765.179,120.833 765.179,111.667 766.5,102.5 Z"/></g>
<g><path style="opacity:1" fill="#49786d" d="M 766.5,104.5 C 805.167,104.5 843.833,104.5 882.5,104.5C 882.5,112.5 882.5,120.5 882.5,128.5C 843.833,128.5 805.167,128.5 766.5,128.5C 766.5,120.5 766.5,112.5 766.5,104.5 Z"/></g>
<g><path style="opacity:0.561" fill="#511553" d="M 94.5,118.5 C 94.5,126.167 94.5,133.833 94.5,141.5C 88.5,141.5 82.5,141.5 76.5,141.5C 70.5,141.5 64.5,141.5 58.5,141.5C 58.5,141.167 58.5,140.833 58.5,140.5C 70.1667,140.5 81.8333,140.5 93.5,140.5C 93.175,132.981 93.5084,125.648 94.5,118.5 Z"/></g>
<g><path style="opacity:1" fill="#c138b8" d="M 58.5,141.5 C 64.5,141.5 70.5,141.5 76.5,141.5C 86.1667,148.167 95.8333,154.833 105.5,161.5C 102.15,161.665 98.8168,161.498 95.5,161C 95.3516,157.657 93.6849,155.657 90.5,155C 79.8385,154.5 69.1719,154.333 58.5,154.5C 58.5,150.167 58.5,145.833 58.5,141.5 Z"/></g>
<g><path style="opacity:1" fill="#b62ebe" d="M 94.5,117.5 C 94.8333,117.5 95.1667,117.5 95.5,117.5C 95.3336,125.507 95.5003,133.507 96,141.5C 100.171,144.862 104.671,147.529 109.5,149.5C 109.175,141.981 109.508,134.648 110.5,127.5C 110.5,127.833 110.5,128.167 110.5,128.5C 110.5,139.5 110.5,150.5 110.5,161.5C 108.833,161.5 107.167,161.5 105.5,161.5C 95.8333,154.833 86.1667,148.167 76.5,141.5C 82.5,141.5 88.5,141.5 94.5,141.5C 94.5,133.833 94.5,126.167 94.5,118.5C 94.5,118.167 94.5,117.833 94.5,117.5 Z"/></g>
<g><path style="opacity:1" fill="#a530de" d="M 152.5,141.5 C 167.167,141.5 181.833,141.5 196.5,141.5C 196.5,145.833 196.5,150.167 196.5,154.5C 183.456,153.853 170.789,154.52 158.5,156.5C 158.206,159.754 156.873,162.421 154.5,164.5C 153.167,165.5 151.833,166.5 150.5,167.5C 147.06,165.945 143.727,164.112 140.5,162C 139.587,160.586 139.587,159.086 140.5,157.5C 143.529,154.099 144.862,150.099 144.5,145.5C 145.906,145.027 146.573,144.027 146.5,142.5C 148.265,141.539 150.265,141.205 152.5,141.5 Z"/></g>
<g><path style="opacity:1" fill="#8650e0" d="M 251.5,142.5 C 253.635,144.369 256.302,145.036 259.5,144.5C 261.008,147.093 263.341,148.426 266.5,148.5C 267.262,150.262 268.596,151.262 270.5,151.5C 270.5,153.5 271.5,154.5 273.5,154.5C 275.094,157.764 277.427,160.431 280.5,162.5C 280.427,164.027 281.094,165.027 282.5,165.5C 282.427,167.027 283.094,168.027 284.5,168.5C 285.256,172.767 286.589,176.767 288.5,180.5C 288.5,180.833 288.5,181.167 288.5,181.5C 288.822,187.358 288.489,193.025 287.5,198.5C 287.664,195.813 287.497,193.146 287,190.5C 283,187.833 279,185.167 275,182.5C 274.601,182.728 274.435,183.062 274.5,183.5C 274.167,183.5 273.833,183.5 273.5,183.5C 272.965,178.09 270.631,173.757 266.5,170.5C 265.167,167.167 262.833,164.833 259.5,163.5C 256.299,160.063 252.299,157.896 247.5,157C 243.249,155.805 238.915,155.305 234.5,155.5C 238.699,154.506 243.033,154.339 247.5,155C 242.672,151.419 237.672,148.085 232.5,145C 231.167,144.333 231.167,143.667 232.5,143C 229.833,142.333 227.167,142.333 224.5,143C 221.477,144.975 218.144,146.141 214.5,146.5C 217.128,144.519 220.128,143.019 223.5,142C 232.991,140.234 242.325,140.401 251.5,142.5 Z"/></g>
<g><path style="opacity:1" fill="#746eeb" d="M 303.5,141.5 C 304.952,142.302 306.618,142.802 308.5,143C 323.025,152.76 337.691,162.26 352.5,171.5C 352.5,177.167 352.5,182.833 352.5,188.5C 348.692,186.427 345.026,184.094 341.5,181.5C 340.833,187.654 340.167,193.654 339.5,199.5C 339.826,191.316 339.492,183.316 338.5,175.5C 329.267,171.935 322.6,165.602 318.5,156.5C 317.583,155.873 316.583,155.539 315.5,155.5C 304.346,154.505 293.012,154.172 281.5,154.5C 281.5,150.167 281.5,145.833 281.5,141.5C 288.833,141.5 296.167,141.5 303.5,141.5 Z"/></g>
<g><path style="opacity:1" fill="#6b76eb" d="M 303.5,141.5 C 310.5,141.5 317.5,141.5 324.5,141.5C 327.228,141.171 329.562,141.837 331.5,143.5C 331.47,153.441 336.136,159.441 345.5,161.5C 346.5,161.5 347.5,161.5 348.5,161.5C 351.198,164.256 352.531,167.589 352.5,171.5C 337.691,162.26 323.025,152.76 308.5,143C 306.618,142.802 304.952,142.302 303.5,141.5 Z"/></g>
<g><path style="opacity:0.961" fill="#473179" d="M 251.5,142.5 C 254.495,142.294 257.162,142.96 259.5,144.5C 256.302,145.036 253.635,144.369 251.5,142.5 Z"/></g>
<g><path style="opacity:0.078" fill="#1a091d" d="M 146.5,142.5 C 146.573,144.027 145.906,145.027 144.5,145.5C 144.427,143.973 145.094,142.973 146.5,142.5 Z"/></g>
<g><path style="opacity:0.042" fill="#08000a" d="M 144.5,145.5 C 144.862,150.099 143.529,154.099 140.5,157.5C 140.167,157.5 139.833,157.5 139.5,157.5C 141.755,153.667 143.422,149.667 144.5,145.5 Z"/></g>
<g><path style="opacity:0.976" fill="#382860" d="M 259.5,144.5 C 262.331,145.079 264.664,146.412 266.5,148.5C 263.341,148.426 261.008,147.093 259.5,144.5 Z"/></g>
<g><path style="opacity:1" fill="#9248e3" d="M 234.5,155.5 C 230.889,156.653 227.223,157.653 223.5,158.5C 220.133,154.818 216.133,151.818 211.5,149.5C 211.833,148.833 212.167,148.167 212.5,147.5C 212.842,146.662 213.508,146.328 214.5,146.5C 218.144,146.141 221.477,144.975 224.5,143C 227.167,142.333 229.833,142.333 232.5,143C 231.167,143.667 231.167,144.333 232.5,145C 237.672,148.085 242.672,151.419 247.5,155C 243.033,154.339 238.699,154.506 234.5,155.5 Z"/></g>
<g><path style="opacity:0.02" fill="#181125" d="M 266.5,148.5 C 268.404,148.738 269.738,149.738 270.5,151.5C 268.596,151.262 267.262,150.262 266.5,148.5 Z"/></g>
<g><path style="opacity:0.831" fill="#4e2275" d="M 212.5,147.5 C 212.167,148.167 211.833,148.833 211.5,149.5C 210.395,150.6 209.062,151.267 207.5,151.5C 208.585,149.413 210.251,148.08 212.5,147.5 Z"/></g>
<g><path style="opacity:0.635" fill="#302257" d="M 270.5,151.5 C 271.833,152.167 272.833,153.167 273.5,154.5C 271.5,154.5 270.5,153.5 270.5,151.5 Z"/></g>
<g><path style="opacity:0.29" fill="#291038" d="M 152.5,141.5 C 167.324,140.504 182.324,140.171 197.5,140.5C 197.805,145.762 197.471,150.928 196.5,156C 183.838,156.5 171.171,156.667 158.5,156.5C 170.789,154.52 183.456,153.853 196.5,154.5C 196.5,150.167 196.5,145.833 196.5,141.5C 181.833,141.5 167.167,141.5 152.5,141.5 Z"/></g>
<g><path style="opacity:0.29" fill="#2f2a60" d="M 324.5,141.5 C 317.5,141.5 310.5,141.5 303.5,141.5C 296.167,141.5 288.833,141.5 281.5,141.5C 281.5,145.833 281.5,150.167 281.5,154.5C 293.012,154.172 304.346,154.505 315.5,155.5C 303.833,155.5 292.167,155.5 280.5,155.5C 280.5,150.5 280.5,145.5 280.5,140.5C 295.343,140.171 310.01,140.504 324.5,141.5 Z"/></g>
<g><path style="opacity:0.49" fill="#222447" d="M 331.5,143.5 C 332.728,152.074 337.395,158.074 345.5,161.5C 336.136,159.441 331.47,153.441 331.5,143.5 Z"/></g>
<g><path style="opacity:0.027" fill="#1b0919" d="M 58.5,140.5 C 58.5,140.833 58.5,141.167 58.5,141.5C 58.5,145.833 58.5,150.167 58.5,154.5C 69.1719,154.333 79.8385,154.5 90.5,155C 93.6849,155.657 95.3516,157.657 95.5,161C 98.8168,161.498 102.15,161.665 105.5,161.5C 107.167,161.5 108.833,161.5 110.5,161.5C 109.486,162.765 107.986,163.431 106,163.5C 102.155,163.094 98.3213,162.594 94.5,162C 93.8333,160.333 93.1667,158.667 92.5,157C 80.8381,156.5 69.1714,156.333 57.5,156.5C 57.1786,150.974 57.5119,145.64 58.5,140.5 Z"/></g>
<g><path style="opacity:0.655" fill="#271c45" d="M 273.5,154.5 C 276.573,156.569 278.906,159.236 280.5,162.5C 277.427,160.431 275.094,157.764 273.5,154.5 Z"/></g>
<g><path style="opacity:0.937" fill="#2f4d46" d="M 961.5,158.5 C 951.845,157.634 942.178,157.467 932.5,158C 928.991,159.759 925.325,160.926 921.5,161.5C 931.085,156.234 941.418,154.401 952.5,156C 955.742,156.406 958.742,157.239 961.5,158.5 Z"/></g>
<g><path style="opacity:0.933" fill="#2e4a43" d="M 1200.5,158.5 C 1190.38,156.86 1180.38,157.194 1170.5,159.5C 1175.52,156.724 1181.02,155.39 1187,155.5C 1190.89,155.594 1194.72,156.094 1198.5,157C 1199.42,157.278 1200.08,157.778 1200.5,158.5 Z"/></g>
<g><path style="opacity:0.396" fill="#331546" d="M 207.5,151.5 C 205.5,154.167 203.167,156.5 200.5,158.5C 201.833,155.167 204.167,152.833 207.5,151.5 Z"/></g>
<g><path style="opacity:1" fill="#49776c" d="M 740.5,194.5 C 740.5,225.167 740.5,255.833 740.5,286.5C 732.833,286.5 725.167,286.5 717.5,286.5C 717.667,255.832 717.5,225.165 717,194.5C 710.825,181.165 700.658,176.665 686.5,181C 680.148,183.534 674.814,187.368 670.5,192.5C 669.502,223.329 669.169,254.329 669.5,285.5C 662.167,285.5 654.833,285.5 647.5,285.5C 647.832,250.996 647.498,216.663 646.5,182.5C 641.025,181.511 635.358,181.178 629.5,181.5C 629.5,174.167 629.5,166.833 629.5,159.5C 642.833,159.5 656.167,159.5 669.5,159.5C 669.5,163.5 669.5,167.5 669.5,171.5C 671.179,171.715 672.179,171.048 672.5,169.5C 673.5,168.167 674.5,166.833 675.5,165.5C 684.468,157.127 695.134,153.961 707.5,156C 727.627,160.963 738.627,173.797 740.5,194.5 Z"/></g>
<g><path style="opacity:1" fill="#49776c" d="M 961.5,158.5 C 966.596,159.546 970.929,161.879 974.5,165.5C 977.167,168.833 980.167,171.833 983.5,174.5C 985.588,176.336 986.921,178.669 987.5,181.5C 987.737,184.647 988.57,187.647 990,190.5C 990.5,205.163 990.667,219.83 990.5,234.5C 967.327,234.169 944.327,234.502 921.5,235.5C 921.25,240.58 921.75,245.58 923,250.5C 923.66,252.324 924.827,253.657 926.5,254.5C 928.618,258.574 931.951,261.241 936.5,262.5C 951.991,263.496 967.658,263.83 983.5,263.5C 983.5,270.833 983.5,278.167 983.5,285.5C 965.833,285.5 948.167,285.5 930.5,285.5C 926.541,283.027 922.207,281.36 917.5,280.5C 916.415,278.413 914.749,277.08 912.5,276.5C 910.058,273.271 907.392,270.271 904.5,267.5C 902.359,261.606 900.526,255.606 899,249.5C 898.27,229.486 898.436,209.486 899.5,189.5C 900.074,185.675 901.241,182.009 903,178.5C 903.949,176.907 905.115,175.574 906.5,174.5C 910.167,171.5 913.5,168.167 916.5,164.5C 917.659,162.75 919.326,161.75 921.5,161.5C 925.325,160.926 928.991,159.759 932.5,158C 942.178,157.467 951.845,157.634 961.5,158.5 Z M 942.5,180.5 C 961.304,182.708 969.637,193.374 967.5,212.5C 952.5,212.5 937.5,212.5 922.5,212.5C 920.149,195.817 926.816,185.15 942.5,180.5 Z"/></g>
<g><path style="opacity:1" fill="#48756b" d="M 1101.5,173.5 C 1103.01,176.692 1104.68,179.859 1106.5,183C 1100.17,186.833 1093.83,190.667 1087.5,194.5C 1076.3,177.906 1062.3,175.073 1045.5,186C 1044.75,186.671 1044.41,187.504 1044.5,188.5C 1044.57,190.027 1043.91,191.027 1042.5,191.5C 1041.12,192.574 1039.95,193.907 1039,195.5C 1038.17,212.338 1038.34,229.005 1039.5,245.5C 1041.23,251.297 1044.23,256.297 1048.5,260.5C 1050.12,262.984 1052.45,264.484 1055.5,265C 1064.43,266.964 1072.43,265.298 1079.5,260C 1082.3,256.886 1084.96,253.719 1087.5,250.5C 1091.62,253.293 1095.95,255.626 1100.5,257.5C 1102.37,258.941 1104.04,260.607 1105.5,262.5C 1104.49,265.183 1103.49,267.849 1102.5,270.5C 1099.83,275.167 1096.17,278.833 1091.5,281.5C 1086.09,283.878 1080.75,286.211 1075.5,288.5C 1075.17,288.5 1074.83,288.5 1074.5,288.5C 1067.49,288.666 1060.49,288.5 1053.5,288C 1047.77,286.121 1042.1,284.287 1036.5,282.5C 1026.22,275.037 1019.72,265.037 1017,252.5C 1015.58,232.874 1015.08,213.207 1015.5,193.5C 1018.58,182.68 1024.25,173.347 1032.5,165.5C 1034.97,164.702 1036.97,163.369 1038.5,161.5C 1043.61,158.299 1049.27,156.465 1055.5,156C 1074.57,152.74 1089.9,158.573 1101.5,173.5 Z"/></g>
<g><path style="opacity:0.243" fill="#1a031c" d="M 139.5,157.5 C 139.027,158.906 138.027,159.573 136.5,159.5C 136.973,158.094 137.973,157.427 139.5,157.5 Z"/></g>
<g><path style="opacity:1" fill="#9c36db" d="M 211.5,149.5 C 216.133,151.818 220.133,154.818 223.5,158.5C 216.167,162.5 210.5,168.167 206.5,175.5C 206.249,173.83 205.582,172.33 204.5,171C 201.473,168.65 198.14,167.15 194.5,166.5C 195.529,163.109 197.529,160.443 200.5,158.5C 203.167,156.5 205.5,154.167 207.5,151.5C 209.062,151.267 210.395,150.6 211.5,149.5 Z"/></g>
<g><path style="opacity:1" fill="#49776c" d="M 602.5,158.5 C 602.5,193.5 602.5,228.5 602.5,263.5C 610.167,263.5 617.833,263.5 625.5,263.5C 625.5,270.833 625.5,278.167 625.5,285.5C 602.5,285.5 579.5,285.5 556.5,285.5C 556.5,278.167 556.5,270.833 556.5,263.5C 564.352,263.825 572.018,263.492 579.5,262.5C 579.5,235.5 579.5,208.5 579.5,181.5C 573.167,181.5 566.833,181.5 560.5,181.5C 560.5,173.833 560.5,166.167 560.5,158.5C 574.5,158.5 588.5,158.5 602.5,158.5 Z"/></g>
<g><path style="opacity:0.314" fill="#182724" d="M 602.5,158.5 C 603.498,192.663 603.832,226.996 603.5,261.5C 610.833,262.167 618.167,262.833 625.5,263.5C 617.833,263.5 610.167,263.5 602.5,263.5C 602.5,228.5 602.5,193.5 602.5,158.5 Z"/></g>
<g><path style="opacity:0.153" fill="#08100f" d="M 670.5,158.5 C 671.319,161.305 671.819,164.305 672,167.5C 672.816,166.177 673.983,165.511 675.5,165.5C 674.5,166.833 673.5,168.167 672.5,169.5C 671.883,169.611 671.383,169.944 671,170.5C 670.501,166.514 670.334,162.514 670.5,158.5 Z"/></g>
<g><path style="opacity:0.31" fill="#190e24" d="M 259.5,163.5 C 262.833,164.833 265.167,167.167 266.5,170.5C 263.833,168.5 261.5,166.167 259.5,163.5 Z"/></g>
<g><path style="opacity:1" fill="#6583f1" d="M 367.5,146.5 C 372.118,149.278 376.618,152.278 381,155.5C 381.464,154.906 381.631,154.239 381.5,153.5C 381.833,153.5 382.167,153.5 382.5,153.5C 382.5,160.5 382.5,167.5 382.5,174.5C 381.835,176.698 381.168,179.031 380.5,181.5C 376.149,178.806 371.816,176.14 367.5,173.5C 367.5,164.5 367.5,155.5 367.5,146.5 Z"/></g>
<g><path style="opacity:0.267" fill="#16201d" d="M 1038.5,161.5 C 1036.97,163.369 1034.97,164.702 1032.5,165.5C 1033.8,163.178 1035.8,161.845 1038.5,161.5 Z"/></g>
<g><path style="opacity:0.251" fill="#1d1431" d="M 280.5,162.5 C 281.906,162.973 282.573,163.973 282.5,165.5C 281.094,165.027 280.427,164.027 280.5,162.5 Z"/></g>
<g><path style="opacity:0.008" fill="#0d0a17" d="M 280.5,155.5 C 292.167,155.5 303.833,155.5 315.5,155.5C 316.583,155.539 317.583,155.873 318.5,156.5C 322.6,165.602 329.267,171.935 338.5,175.5C 338.5,175.833 338.5,176.167 338.5,176.5C 331.814,174.732 326.314,171.065 322,165.5C 320.291,162.582 318.458,159.748 316.5,157C 304.326,156.831 292.326,156.331 280.5,155.5 Z"/></g>
<g><path style="opacity:0.024" fill="#140618" d="M 234.5,155.5 C 238.915,155.305 243.249,155.805 247.5,157C 252.299,157.896 256.299,160.063 259.5,163.5C 241.03,152.496 224.863,155.162 211,171.5C 204.254,182.297 203.087,193.63 207.5,205.5C 206.5,204.167 205.5,202.833 204.5,201.5C 202.707,192.603 203.373,183.936 206.5,175.5C 210.5,168.167 216.167,162.5 223.5,158.5C 227.223,157.653 230.889,156.653 234.5,155.5 Z"/></g>
<g><path style="opacity:0.031" fill="#141e1b" d="M 974.5,165.5 C 978.5,167.5 981.5,170.5 983.5,174.5C 980.167,171.833 977.167,168.833 974.5,165.5 Z"/></g>
<g><path style="opacity:0.188" fill="#161028" d="M 282.5,165.5 C 283.906,165.973 284.573,166.973 284.5,168.5C 283.094,168.027 282.427,167.027 282.5,165.5 Z"/></g>
<g><path style="opacity:0.545" fill="#182723" d="M 916.5,164.5 C 913.5,168.167 910.167,171.5 906.5,174.5C 908.833,170.167 912.167,166.833 916.5,164.5 Z"/></g>
<g><path style="opacity:0.047" fill="#19071b" d="M 154.5,164.5 C 152.833,168.167 150.167,170.833 146.5,172.5C 147.833,170.833 149.167,169.167 150.5,167.5C 151.833,166.5 153.167,165.5 154.5,164.5 Z"/></g>
<g><path style="opacity:0.337" fill="#381249" d="M 194.5,166.5 C 194.573,168.027 193.906,169.027 192.5,169.5C 192.427,167.973 193.094,166.973 194.5,166.5 Z"/></g>
<g><path style="opacity:1" fill="#c34c8b" d="M 55.5,168.5 C 58.5184,168.335 61.5184,168.502 64.5,169C 65.756,169.417 66.4226,170.25 66.5,171.5C 66.5,175.5 66.5,179.5 66.5,183.5C 61.5,183.5 56.5,183.5 51.5,183.5C 51.5,178.5 51.5,173.5 51.5,168.5C 52.8333,168.5 54.1667,168.5 55.5,168.5 Z"/></g>
<g><path style="opacity:1" fill="#ca46a6" d="M 81.5,169.5 C 85.247,169.392 88.9137,169.892 92.5,171C 98.6791,175.03 104.679,179.196 110.5,183.5C 100.833,183.5 91.1667,183.5 81.5,183.5C 81.5,178.833 81.5,174.167 81.5,169.5 Z"/></g>
<g><path style="opacity:1" fill="#b739a7" d="M 81.5,169.5 C 81.5,169.167 81.5,168.833 81.5,168.5C 83.5,168.5 85.5,168.5 87.5,168.5C 97.1667,168.5 106.833,168.5 116.5,168.5C 116.5,169.5 116.5,170.5 116.5,171.5C 116.5,175.5 116.5,179.5 116.5,183.5C 114.5,183.5 112.5,183.5 110.5,183.5C 104.679,179.196 98.6791,175.03 92.5,171C 88.9137,169.892 85.247,169.392 81.5,169.5 Z"/></g>
<g><path style="opacity:1" fill="#b82dc5" d="M 139.5,157.5 C 139.833,157.5 140.167,157.5 140.5,157.5C 139.587,159.086 139.587,160.586 140.5,162C 143.727,164.112 147.06,165.945 150.5,167.5C 149.167,169.167 147.833,170.833 146.5,172.5C 143.669,173.079 141.336,174.412 139.5,176.5C 138.5,176.833 137.833,177.5 137.5,178.5C 136.849,179.091 136.182,179.757 135.5,180.5C 132.5,178.5 129.5,176.5 126.5,174.5C 125.526,172.257 125.192,169.924 125.5,167.5C 125.615,165.053 126.615,163.053 128.5,161.5C 131.221,161.037 133.888,160.371 136.5,159.5C 138.027,159.573 139.027,158.906 139.5,157.5 Z"/></g>
<g><path style="opacity:0.62" fill="#25173e" d="M 284.5,168.5 C 286.806,172.085 288.139,176.085 288.5,180.5C 286.589,176.767 285.256,172.767 284.5,168.5 Z"/></g>
<g><path style="opacity:0.045" fill="#1f0e1b" d="M 128.5,161.5 C 126.615,163.053 125.615,165.053 125.5,167.5C 124.51,173.31 124.177,179.31 124.5,185.5C 124.5,192.5 124.5,199.5 124.5,206.5C 124.253,211.503 125.253,216.17 127.5,220.5C 125.224,220.244 124.057,218.91 124,216.5C 122,199.5 122,182.5 124,165.5C 124.748,163.249 126.248,161.916 128.5,161.5 Z"/></g>
<g><path style="opacity:0.949" fill="#321c4d" d="M 266.5,170.5 C 270.631,173.757 272.965,178.09 273.5,183.5C 273.5,185.5 273.5,187.5 273.5,189.5C 272.176,182.869 269.843,176.536 266.5,170.5 Z"/></g>
<g><path style="opacity:0.114" fill="#180418" d="M 146.5,172.5 C 144.664,174.588 142.331,175.921 139.5,176.5C 141.336,174.412 143.669,173.079 146.5,172.5 Z"/></g>
<g><path style="opacity:0.157" fill="#131e1b" d="M 1200.5,158.5 C 1214.6,163.606 1222.93,173.606 1225.5,188.5C 1223.24,182.647 1220.41,176.98 1217,171.5C 1212.02,166.289 1206.52,161.956 1200.5,158.5 Z"/></g>
<g><path style="opacity:0.229" fill="#1e173a" d="M 338.5,175.5 C 339.492,183.316 339.826,191.316 339.5,199.5C 339.946,202.01 339.28,204.01 337.5,205.5C 338.421,195.873 338.755,186.206 338.5,176.5C 338.5,176.167 338.5,175.833 338.5,175.5 Z"/></g>
<g><path style="opacity:0.129" fill="#101916" d="M 1032.5,165.5 C 1024.25,173.347 1018.58,182.68 1015.5,193.5C 1017.22,182.56 1022.22,173.394 1030.5,166C 1031.09,165.536 1031.76,165.369 1032.5,165.5 Z"/></g>
<g><path style="opacity:0.11" fill="#050e0d" d="M 765.5,178.5 C 804.833,178.5 844.167,178.5 883.5,178.5C 883.5,187.5 883.5,196.5 883.5,205.5C 868.5,205.5 853.5,205.5 838.5,205.5C 838.5,232.833 838.5,260.167 838.5,287.5C 829.5,287.5 820.5,287.5 811.5,287.5C 811.5,260.167 811.5,232.833 811.5,205.5C 796.167,205.5 780.833,205.5 765.5,205.5C 765.5,196.5 765.5,187.5 765.5,178.5 Z"/></g>
<g><path style="opacity:1" fill="#c138b9" d="M 125.5,167.5 C 125.192,169.924 125.526,172.257 126.5,174.5C 129.5,176.5 132.5,178.5 135.5,180.5C 136.182,179.757 136.849,179.091 137.5,178.5C 137.5,182.167 137.5,185.833 137.5,189.5C 136.842,190.398 136.176,191.398 135.5,192.5C 131.974,189.906 128.308,187.573 124.5,185.5C 124.177,179.31 124.51,173.31 125.5,167.5 Z"/></g>
<g><path style="opacity:0.184" fill="#060b0b" d="M 466.5,205.5 C 466.5,205.167 466.5,204.833 466.5,204.5C 487.5,204.5 508.5,204.5 529.5,204.5C 529.5,196.167 529.5,187.833 529.5,179.5C 500.167,179.5 470.833,179.5 441.5,179.5C 441.5,214.833 441.5,250.167 441.5,285.5C 449.65,286.493 457.983,286.826 466.5,286.5C 457.765,287.828 448.932,287.828 440,286.5C 439.333,250.833 439.333,215.167 440,179.5C 470.426,178.504 500.926,178.171 531.5,178.5C 531.5,187.5 531.5,196.5 531.5,205.5C 509.833,205.5 488.167,205.5 466.5,205.5 Z"/></g>
<g><path style="opacity:0.835" fill="#375c53" d="M 837.5,204.5 C 837.167,204.5 836.833,204.5 836.5,204.5C 851.324,203.504 866.324,203.171 881.5,203.5C 881.5,195.833 881.5,188.167 881.5,180.5C 843.5,180.5 805.5,180.5 767.5,180.5C 767.5,188.167 767.5,195.833 767.5,203.5C 782.676,203.171 797.676,203.504 812.5,204.5C 797.167,204.5 781.833,204.5 766.5,204.5C 766.5,196.167 766.5,187.833 766.5,179.5C 805.167,179.5 843.833,179.5 882.5,179.5C 882.5,187.833 882.5,196.167 882.5,204.5C 867.5,204.5 852.5,204.5 837.5,204.5 Z"/></g>
<g><path style="opacity:1" fill="#49776c" d="M 466.5,204.5 C 465.502,231.328 465.169,258.328 465.5,285.5C 457.5,285.5 449.5,285.5 441.5,285.5C 441.5,250.167 441.5,214.833 441.5,179.5C 470.833,179.5 500.167,179.5 529.5,179.5C 529.5,187.833 529.5,196.167 529.5,204.5C 508.5,204.5 487.5,204.5 466.5,204.5 Z"/></g>
<g><path style="opacity:1" fill="#49786d" d="M 836.5,204.5 C 836.5,231.5 836.5,258.5 836.5,285.5C 828.5,285.5 820.5,285.5 812.5,285.5C 812.5,258.5 812.5,231.5 812.5,204.5C 797.676,203.504 782.676,203.171 767.5,203.5C 767.5,195.833 767.5,188.167 767.5,180.5C 805.5,180.5 843.5,180.5 881.5,180.5C 881.5,188.167 881.5,195.833 881.5,203.5C 866.324,203.171 851.324,203.504 836.5,204.5 Z"/></g>
<g><path style="opacity:0.573" fill="#2e4d45" d="M 628.5,158.5 C 642.5,158.5 656.5,158.5 670.5,158.5C 670.334,162.514 670.501,166.514 671,170.5C 671.383,169.944 671.883,169.611 672.5,169.5C 672.179,171.048 671.179,171.715 669.5,171.5C 669.5,167.5 669.5,163.5 669.5,159.5C 656.167,159.5 642.833,159.5 629.5,159.5C 629.5,166.833 629.5,174.167 629.5,181.5C 635.358,181.178 641.025,181.511 646.5,182.5C 640.5,182.5 634.5,182.5 628.5,182.5C 628.5,174.5 628.5,166.5 628.5,158.5 Z"/></g>
<g><path style="opacity:0.522" fill="#5c243f" d="M 66.5,171.5 C 67.1933,175.565 67.8599,179.732 68.5,184C 68.2716,184.399 67.9382,184.565 67.5,184.5C 61.9738,184.821 56.6405,184.488 51.5,183.5C 56.5,183.5 61.5,183.5 66.5,183.5C 66.5,179.5 66.5,175.5 66.5,171.5 Z"/></g>
<g><path style="opacity:0.522" fill="#662353" d="M 81.5,168.5 C 81.5,168.833 81.5,169.167 81.5,169.5C 81.5,174.167 81.5,178.833 81.5,183.5C 91.1667,183.5 100.833,183.5 110.5,183.5C 112.5,183.5 114.5,183.5 116.5,183.5C 116.5,179.5 116.5,175.5 116.5,171.5C 117.485,175.634 117.818,179.968 117.5,184.5C 105.167,184.5 92.8333,184.5 80.5,184.5C 80.1786,178.974 80.5119,173.64 81.5,168.5 Z"/></g>
<g><path style="opacity:0.082" fill="#18070d" d="M 55.5,168.5 C 54.1667,168.5 52.8333,168.5 51.5,168.5C 51.5,173.5 51.5,178.5 51.5,183.5C 56.6405,184.488 61.9738,184.821 67.5,184.5C 62.0247,185.489 56.358,185.822 50.5,185.5C 50.5,179.5 50.5,173.5 50.5,167.5C 52.4147,167.216 54.0813,167.549 55.5,168.5 Z"/></g>
<g><path style="opacity:0.082" fill="#0c000c" d="M 87.5,168.5 C 85.5,168.5 83.5,168.5 81.5,168.5C 80.5119,173.64 80.1786,178.974 80.5,184.5C 92.8333,184.5 105.167,184.5 117.5,184.5C 105.011,185.495 92.3443,185.829 79.5,185.5C 79.5,179.5 79.5,173.5 79.5,167.5C 82.3854,167.194 85.0521,167.527 87.5,168.5 Z"/></g>
<g><path style="opacity:1" fill="#b325de" d="M 194.5,166.5 C 198.14,167.15 201.473,168.65 204.5,171C 205.582,172.33 206.249,173.83 206.5,175.5C 203.373,183.936 202.707,192.603 204.5,201.5C 204.631,202.239 204.464,202.906 204,203.5C 199.667,200.5 195.333,197.5 191,194.5C 190.283,186.09 190.783,177.756 192.5,169.5C 193.906,169.027 194.573,168.027 194.5,166.5 Z"/></g>
<g><path style="opacity:0.029" fill="#09100f" d="M 1101.5,173.5 C 1104.94,176.385 1106.78,180.051 1107,184.5C 1100.3,188.699 1093.46,192.699 1086.5,196.5C 1075.32,178.871 1061.32,176.204 1044.5,188.5C 1044.41,187.504 1044.75,186.671 1045.5,186C 1062.3,175.073 1076.3,177.906 1087.5,194.5C 1093.83,190.667 1100.17,186.833 1106.5,183C 1104.68,179.859 1103.01,176.692 1101.5,173.5 Z"/></g>
<g><path style="opacity:0.693" fill="#372e68" d="M 348.5,161.5 C 350.017,161.511 351.184,162.177 352,163.5C 354.957,181.086 355.29,198.752 353,216.5C 352.722,217.416 352.222,218.082 351.5,218.5C 352.332,208.524 352.666,198.524 352.5,188.5C 352.5,182.833 352.5,177.167 352.5,171.5C 352.531,167.589 351.198,164.256 348.5,161.5 Z"/></g>
<g><path style="opacity:0.008" fill="#0d1412" d="M 1195.5,185.5 C 1198,186.129 1199.33,187.796 1199.5,190.5C 1197.94,189.055 1196.6,187.389 1195.5,185.5 Z"/></g>
<g><path style="opacity:1" fill="#7371ed" d="M 367.5,173.5 C 371.816,176.14 376.149,178.806 380.5,181.5C 381.168,179.031 381.835,176.698 382.5,174.5C 382.74,185.531 382.407,196.531 381.5,207.5C 376.833,204.5 372.167,201.5 367.5,198.5C 367.5,190.167 367.5,181.833 367.5,173.5 Z"/></g>
<g><path style="opacity:0.027" fill="#0b1211" d="M 1162.5,164.5 C 1160.47,166.939 1158.3,169.272 1156,171.5C 1155.5,149.169 1155.33,126.836 1155.5,104.5C 1141.83,104.5 1128.17,104.5 1114.5,104.5C 1114.5,112.167 1114.5,119.833 1114.5,127.5C 1120.5,127.5 1126.5,127.5 1132.5,127.5C 1132.5,180.5 1132.5,233.5 1132.5,286.5C 1140.17,286.5 1147.83,286.5 1155.5,286.5C 1155.33,254.832 1155.5,223.165 1156,191.5C 1164.24,182.462 1174.4,178.629 1186.5,180C 1190.2,180.843 1193.2,182.676 1195.5,185.5C 1181.43,178.212 1168.93,180.545 1158,192.5C 1157.5,224.165 1157.33,255.832 1157.5,287.5C 1148.83,287.5 1140.17,287.5 1131.5,287.5C 1131.5,234.5 1131.5,181.5 1131.5,128.5C 1125.5,128.5 1119.5,128.5 1113.5,128.5C 1113.5,119.833 1113.5,111.167 1113.5,102.5C 1128.08,102.176 1142.58,102.51 1157,103.5C 1157.33,124.833 1157.67,146.167 1158,167.5C 1159.13,165.859 1160.63,164.859 1162.5,164.5 Z"/></g>
<g><path style="opacity:0.153" fill="#080f0e" d="M 628.5,158.5 C 628.5,166.5 628.5,174.5 628.5,182.5C 634.5,182.5 640.5,182.5 646.5,182.5C 646.5,217.167 646.5,251.833 646.5,286.5C 654.5,286.5 662.5,286.5 670.5,286.5C 670.5,255.167 670.5,223.833 670.5,192.5C 674.814,187.368 680.148,183.534 686.5,181C 700.658,176.665 710.825,181.165 717,194.5C 717.5,225.165 717.667,255.832 717.5,286.5C 725.167,286.5 732.833,286.5 740.5,286.5C 740.5,255.833 740.5,225.167 740.5,194.5C 741.498,225.329 741.831,256.329 741.5,287.5C 732.915,287.817 724.415,287.483 716,286.5C 715.667,255.833 715.333,225.167 715,194.5C 711.561,185.944 705.228,181.277 696,180.5C 686.622,181.842 678.622,185.842 672,192.5C 671.5,224.165 671.333,255.832 671.5,287.5C 662.833,287.5 654.167,287.5 645.5,287.5C 645.5,252.833 645.5,218.167 645.5,183.5C 639.5,183.5 633.5,183.5 627.5,183.5C 627.174,174.983 627.507,166.65 628.5,158.5 Z"/></g>
<g><path style="opacity:0.714" fill="#2e4c45" d="M 646.5,182.5 C 647.498,216.663 647.832,250.996 647.5,285.5C 654.833,285.5 662.167,285.5 669.5,285.5C 669.169,254.329 669.502,223.329 670.5,192.5C 670.5,223.833 670.5,255.167 670.5,286.5C 662.5,286.5 654.5,286.5 646.5,286.5C 646.5,251.833 646.5,217.167 646.5,182.5 Z"/></g>
<g><path style="opacity:0.37" fill="#491545" d="M 139.5,176.5 C 138.558,185.113 138.225,193.779 138.5,202.5C 137.515,198.366 137.182,194.032 137.5,189.5C 137.5,185.833 137.5,182.167 137.5,178.5C 137.833,177.5 138.5,176.833 139.5,176.5 Z"/></g>
<g><path style="opacity:0.725" fill="#782f54" d="M 94.5,190.5 C 99.8333,190.5 105.167,190.5 110.5,190.5C 110.827,200.348 110.494,210.014 109.5,219.5C 109.5,213.167 109.5,206.833 109.5,200.5C 109.5,197.5 109.5,194.5 109.5,191.5C 104.833,191.5 100.167,191.5 95.5,191.5C 95.5,193.833 95.5,196.167 95.5,198.5C 95.5,205.5 95.5,212.5 95.5,219.5C 96.8333,219.5 98.1667,219.5 99.5,219.5C 98.0813,220.451 96.4147,220.784 94.5,220.5C 94.5,210.5 94.5,200.5 94.5,190.5 Z"/></g>
<g><path style="opacity:1" fill="#cb4c9a" d="M 109.5,200.5 C 108.691,202.292 108.191,204.292 108,206.5C 104.031,203.438 99.8645,200.771 95.5,198.5C 95.5,196.167 95.5,193.833 95.5,191.5C 100.167,191.5 104.833,191.5 109.5,191.5C 109.5,194.5 109.5,197.5 109.5,200.5 Z"/></g>
<g><path style="opacity:1" fill="#c443a2" d="M 124.5,185.5 C 128.308,187.573 131.974,189.906 135.5,192.5C 136.176,191.398 136.842,190.398 137.5,189.5C 137.182,194.032 137.515,198.366 138.5,202.5C 138.5,202.833 138.5,203.167 138.5,203.5C 138.238,204.978 138.571,206.311 139.5,207.5C 142.188,208.513 144.854,209.513 147.5,210.5C 148.167,210.833 148.833,211.167 149.5,211.5C 150.08,213.749 151.413,215.415 153.5,216.5C 156.444,218.716 158.111,221.716 158.5,225.5C 158.5,226.167 158.5,226.833 158.5,227.5C 147.167,220.5 135.833,213.5 124.5,206.5C 124.5,199.5 124.5,192.5 124.5,185.5 Z"/></g>
<g><path style="opacity:0.106" fill="#020909" d="M 1199.5,190.5 C 1201.22,191.605 1202.22,193.272 1202.5,195.5C 1202.5,225.833 1202.5,256.167 1202.5,286.5C 1210.5,286.5 1218.5,286.5 1226.5,286.5C 1226.5,256.5 1226.5,226.5 1226.5,196.5C 1227.5,226.662 1227.83,256.995 1227.5,287.5C 1218.83,287.5 1210.17,287.5 1201.5,287.5C 1201.67,256.832 1201.5,226.165 1201,195.5C 1200.39,193.846 1199.89,192.179 1199.5,190.5 Z"/></g>
<g><path style="opacity:0.502" fill="#28423c" d="M 1225.5,188.5 C 1226.47,190.948 1226.81,193.615 1226.5,196.5C 1226.5,226.5 1226.5,256.5 1226.5,286.5C 1218.5,286.5 1210.5,286.5 1202.5,286.5C 1202.5,256.167 1202.5,225.833 1202.5,195.5C 1203.5,225.329 1203.83,255.329 1203.5,285.5C 1210.83,285.5 1218.17,285.5 1225.5,285.5C 1225.5,253.167 1225.5,220.833 1225.5,188.5 Z"/></g>
<g><path style="opacity:0.357" fill="#191428" d="M 110.5,128.5 C 110.5,128.167 110.5,127.833 110.5,127.5C 171.167,127.5 231.833,127.5 292.5,127.5C 317.5,127.5 342.5,127.5 367.5,127.5C 367.5,127.833 367.5,128.167 367.5,128.5C 367.5,134.5 367.5,140.5 367.5,146.5C 367.5,155.5 367.5,164.5 367.5,173.5C 367.5,181.833 367.5,190.167 367.5,198.5C 367.5,207.5 367.5,216.5 367.5,225.5C 367.5,231.5 367.5,237.5 367.5,243.5C 367.5,247.167 367.5,250.833 367.5,254.5C 317.833,254.5 268.167,254.5 218.5,254.5C 199.5,254.5 180.5,254.5 161.5,254.5C 153.833,254.5 146.167,254.5 138.5,254.5C 138.5,254.167 138.5,253.833 138.5,253.5C 214.5,253.5 290.5,253.5 366.5,253.5C 366.5,211.833 366.5,170.167 366.5,128.5C 281.167,128.5 195.833,128.5 110.5,128.5 Z"/></g>
<g><path style="opacity:0.463" fill="#1e322e" d="M 899.5,189.5 C 898.436,209.486 898.27,229.486 899,249.5C 900.526,255.606 902.359,261.606 904.5,267.5C 901.008,262.83 898.841,257.497 898,251.5C 897.333,232.167 897.333,212.833 898,193.5C 898.21,191.942 898.71,190.609 899.5,189.5 Z"/></g>
<g><path style="opacity:0.262" fill="#0e1916" d="M 1015.5,193.5 C 1015.08,213.207 1015.58,232.874 1017,252.5C 1019.72,265.037 1026.22,275.037 1036.5,282.5C 1024.71,275.952 1017.54,265.952 1015,252.5C 1014.17,232.662 1014.34,212.996 1015.5,193.5 Z"/></g>
<g><path style="opacity:0.31" fill="#182a26" d="M 1042.5,191.5 C 1041.39,194.054 1040.56,196.721 1040,199.5C 1039.5,214.83 1039.33,230.163 1039.5,245.5C 1038.34,229.005 1038.17,212.338 1039,195.5C 1039.95,193.907 1041.12,192.574 1042.5,191.5 Z"/></g>
<g><path style="opacity:0.937" fill="#611a6a" d="M 189.5,202.5 C 190.117,202.611 190.617,202.944 191,203.5C 191.495,205.473 191.662,207.473 191.5,209.5C 190.076,207.485 189.41,205.152 189.5,202.5 Z"/></g>
<g><path style="opacity:1" fill="#b52bc3" d="M 192.5,169.5 C 190.783,177.756 190.283,186.09 191,194.5C 195.333,197.5 199.667,200.5 204,203.5C 204.464,202.906 204.631,202.239 204.5,201.5C 205.5,202.833 206.5,204.167 207.5,205.5C 208.151,208.803 209.818,211.47 212.5,213.5C 213.167,216.167 214.833,217.833 217.5,218.5C 220.327,222.57 224.327,224.57 229.5,224.5C 230.5,225.167 231.5,225.833 232.5,226.5C 231.127,226.343 229.793,226.51 228.5,227C 234.337,230.418 240.004,234.084 245.5,238C 247.134,238.494 248.801,238.66 250.5,238.5C 241.682,239.493 232.682,239.827 223.5,239.5C 220.855,237.69 217.855,236.69 214.5,236.5C 214.027,235.094 213.027,234.427 211.5,234.5C 207.167,229.5 202.5,224.833 197.5,220.5C 197.573,218.973 196.906,217.973 195.5,217.5C 195.573,215.973 194.906,214.973 193.5,214.5C 192.069,213.22 191.402,211.553 191.5,209.5C 191.662,207.473 191.495,205.473 191,203.5C 190.617,202.944 190.117,202.611 189.5,202.5C 188.345,195.345 188.178,188.012 189,180.5C 189.498,176.509 190.665,172.842 192.5,169.5 Z"/></g>
<g><path style="opacity:0.565" fill="#2a443f" d="M 466.5,204.5 C 466.5,204.833 466.5,205.167 466.5,205.5C 466.5,232.5 466.5,259.5 466.5,286.5C 457.983,286.826 449.65,286.493 441.5,285.5C 449.5,285.5 457.5,285.5 465.5,285.5C 465.169,258.328 465.502,231.328 466.5,204.5 Z"/></g>
<g><path style="opacity:0.404" fill="#1e342f" d="M 836.5,204.5 C 836.833,204.5 837.167,204.5 837.5,204.5C 837.5,231.833 837.5,259.167 837.5,286.5C 828.983,286.826 820.65,286.493 812.5,285.5C 820.5,285.5 828.5,285.5 836.5,285.5C 836.5,258.5 836.5,231.5 836.5,204.5 Z"/></g>
<g><path style="opacity:1" fill="#d1578b" d="M 95.5,198.5 C 99.8645,200.771 104.031,203.438 108,206.5C 108.191,204.292 108.691,202.292 109.5,200.5C 109.5,206.833 109.5,213.167 109.5,219.5C 106.167,219.5 102.833,219.5 99.5,219.5C 98.1667,219.5 96.8333,219.5 95.5,219.5C 95.5,212.5 95.5,205.5 95.5,198.5 Z"/></g>
<g><path style="opacity:1" fill="#cb4c99" d="M 124.5,206.5 C 135.833,213.5 147.167,220.5 158.5,227.5C 164.5,231.833 170.5,236.167 176.5,240.5C 166.753,240.92 157.086,240.42 147.5,239C 146.667,238.167 145.833,237.333 145,236.5C 144.071,225.735 138.238,220.402 127.5,220.5C 125.253,216.17 124.253,211.503 124.5,206.5 Z"/></g>
<g><path style="opacity:1" fill="#9e3ae2" d="M 287.5,198.5 C 286.655,206.839 283.655,214.172 278.5,220.5C 275.583,217.697 272.25,215.363 268.5,213.5C 267.583,214.127 266.583,214.461 265.5,214.5C 266.6,213.395 267.267,212.062 267.5,210.5C 268.376,210.631 269.043,210.298 269.5,209.5C 273.531,201.32 275.197,192.654 274.5,183.5C 274.435,183.062 274.601,182.728 275,182.5C 279,185.167 283,187.833 287,190.5C 287.497,193.146 287.664,195.813 287.5,198.5 Z"/></g>
<g><path style="opacity:0.435" fill="#201432" d="M 337.5,205.5 C 336.486,206.674 335.153,207.34 333.5,207.5C 334.287,205.896 335.62,205.229 337.5,205.5 Z"/></g>
<g><path style="opacity:0.381" fill="#172621" d="M 560.5,181.5 C 566.833,181.5 573.167,181.5 579.5,181.5C 579.5,208.5 579.5,235.5 579.5,262.5C 571.5,262.5 563.5,262.5 555.5,262.5C 562.982,261.508 570.648,261.175 578.5,261.5C 578.5,235.5 578.5,209.5 578.5,183.5C 572.074,184.12 566.074,183.453 560.5,181.5 Z"/></g>
<g><path style="opacity:0.718" fill="#57204a" d="M 138.5,203.5 C 141.28,206.064 144.28,208.397 147.5,210.5C 144.854,209.513 142.188,208.513 139.5,207.5C 138.571,206.311 138.238,204.978 138.5,203.5 Z"/></g>
<g><path style="opacity:0.749" fill="#4c1d6c" d="M 273.5,183.5 C 273.833,183.5 274.167,183.5 274.5,183.5C 275.197,192.654 273.531,201.32 269.5,209.5C 269.043,210.298 268.376,210.631 267.5,210.5C 271.116,203.982 273.116,196.982 273.5,189.5C 273.5,187.5 273.5,185.5 273.5,183.5 Z"/></g>
<g><path style="opacity:1" fill="#8458e6" d="M 352.5,188.5 C 352.666,198.524 352.332,208.524 351.5,218.5C 349.621,219.341 347.621,219.675 345.5,219.5C 341.68,216.53 337.68,213.696 333.5,211C 332.181,210.805 330.847,210.972 329.5,211.5C 329.833,210.833 330.167,210.167 330.5,209.5C 330.973,208.094 331.973,207.427 333.5,207.5C 335.153,207.34 336.486,206.674 337.5,205.5C 339.28,204.01 339.946,202.01 339.5,199.5C 340.167,193.654 340.833,187.654 341.5,181.5C 345.026,184.094 348.692,186.427 352.5,188.5 Z"/></g>
<g><path style="opacity:0.027" fill="#0f0211" d="M 207.5,205.5 C 209.664,207.822 211.331,210.489 212.5,213.5C 209.818,211.47 208.151,208.803 207.5,205.5 Z"/></g>
<g><path style="opacity:0.149" fill="#1e0d13" d="M 94.5,190.5 C 94.5,200.5 94.5,210.5 94.5,220.5C 96.4147,220.784 98.0813,220.451 99.5,219.5C 102.833,219.5 106.167,219.5 109.5,219.5C 104.432,221.178 99.0984,221.844 93.5,221.5C 93.1724,210.986 93.5058,200.653 94.5,190.5 Z"/></g>
<g><path style="opacity:0.278" fill="#261339" d="M 330.5,209.5 C 330.167,210.167 329.833,210.833 329.5,211.5C 324.662,214.672 321.329,219.005 319.5,224.5C 319.043,225.298 318.376,225.631 317.5,225.5C 319.652,218.352 323.985,213.019 330.5,209.5 Z"/></g>
<g><path style="opacity:0.475" fill="#32152b" d="M 149.5,211.5 C 151.587,212.585 152.92,214.251 153.5,216.5C 151.413,215.415 150.08,213.749 149.5,211.5 Z"/></g>
<g><path style="opacity:0.282" fill="#111c19" d="M 938.5,179.5 C 961.418,179.302 971.418,190.635 968.5,213.5C 952.833,213.5 937.167,213.5 921.5,213.5C 918.211,197.411 923.877,186.078 938.5,179.5 Z M 942.5,180.5 C 926.816,185.15 920.149,195.817 922.5,212.5C 937.5,212.5 952.5,212.5 967.5,212.5C 969.637,193.374 961.304,182.708 942.5,180.5 Z"/></g>
<g><path style="opacity:0.18" fill="#311519" d="M 51.5,197.5 C 51.5,202.833 51.5,208.167 51.5,213.5C 61.3478,213.827 71.0144,213.494 80.5,212.5C 80.5,207.833 80.5,203.167 80.5,198.5C 80.5,198.167 80.5,197.833 80.5,197.5C 81.4889,202.975 81.8222,208.642 81.5,214.5C 71.1667,214.5 60.8333,214.5 50.5,214.5C 50.1778,208.642 50.5111,202.975 51.5,197.5 Z"/></g>
<g><path style="opacity:0.718" fill="#994751" d="M 51.5,197.5 C 61.1667,197.5 70.8333,197.5 80.5,197.5C 80.5,197.833 80.5,198.167 80.5,198.5C 73.5,198.5 66.5,198.5 59.5,198.5C 57.1667,198.5 54.8333,198.5 52.5,198.5C 52.5,203.167 52.5,207.833 52.5,212.5C 61.1667,212.5 69.8333,212.5 78.5,212.5C 79.1667,212.5 79.8333,212.5 80.5,212.5C 71.0144,213.494 61.3478,213.827 51.5,213.5C 51.5,208.167 51.5,202.833 51.5,197.5 Z"/></g>
<g><path style="opacity:1" fill="#db6775" d="M 59.5,198.5 C 59.9371,200.074 60.9371,201.241 62.5,202C 68.0696,205.275 73.4029,208.775 78.5,212.5C 69.8333,212.5 61.1667,212.5 52.5,212.5C 52.5,207.833 52.5,203.167 52.5,198.5C 54.8333,198.5 57.1667,198.5 59.5,198.5 Z"/></g>
<g><path style="opacity:1" fill="#d65e80" d="M 59.5,198.5 C 66.5,198.5 73.5,198.5 80.5,198.5C 80.5,203.167 80.5,207.833 80.5,212.5C 79.8333,212.5 79.1667,212.5 78.5,212.5C 73.4029,208.775 68.0696,205.275 62.5,202C 60.9371,201.241 59.9371,200.074 59.5,198.5 Z"/></g>
<g><path style="opacity:0.369" fill="#250e28" d="M 212.5,213.5 C 214.5,214.833 216.167,216.5 217.5,218.5C 214.833,217.833 213.167,216.167 212.5,213.5 Z"/></g>
<g><path style="opacity:0.318" fill="#2a0f36" d="M 267.5,210.5 C 267.267,212.062 266.6,213.395 265.5,214.5C 263.427,216.58 261.093,218.246 258.5,219.5C 261.167,216.167 264.167,213.167 267.5,210.5 Z"/></g>
<g><path style="opacity:0.114" fill="#240e2b" d="M 288.5,181.5 C 292.336,206.332 283.336,225.165 261.5,238C 248.817,241.838 236.15,242.338 223.5,239.5C 232.682,239.827 241.682,239.493 250.5,238.5C 262.705,236.961 272.038,230.961 278.5,220.5C 283.655,214.172 286.655,206.839 287.5,198.5C 288.489,193.025 288.822,187.358 288.5,181.5 Z"/></g>
<g><path style="opacity:0.078" fill="#1c0a1d" d="M 193.5,214.5 C 194.906,214.973 195.573,215.973 195.5,217.5C 194.094,217.027 193.427,216.027 193.5,214.5 Z"/></g>
<g><path style="opacity:1" fill="#835feb" d="M 367.5,198.5 C 372.167,201.5 376.833,204.5 381.5,207.5C 381.5,216.167 381.5,224.833 381.5,233.5C 376.593,231.261 371.926,228.594 367.5,225.5C 367.5,216.5 367.5,207.5 367.5,198.5 Z"/></g>
<g><path style="opacity:0.027" fill="#1e0b1e" d="M 195.5,217.5 C 196.906,217.973 197.573,218.973 197.5,220.5C 196.094,220.027 195.427,219.027 195.5,217.5 Z"/></g>
<g><path style="opacity:0.514" fill="#380f48" d="M 258.5,219.5 C 258.027,220.906 257.027,221.573 255.5,221.5C 255.973,220.094 256.973,219.427 258.5,219.5 Z"/></g>
<g><path style="opacity:1" fill="#9445e3" d="M 345.5,219.5 C 336.465,222.19 332.131,228.19 332.5,237.5C 331.833,237.833 331.167,238.167 330.5,238.5C 330.67,237.178 330.337,236.011 329.5,235C 325.438,231.971 321.105,229.471 316.5,227.5C 316.833,226.833 317.167,226.167 317.5,225.5C 318.376,225.631 319.043,225.298 319.5,224.5C 321.329,219.005 324.662,214.672 329.5,211.5C 330.847,210.972 332.181,210.805 333.5,211C 337.68,213.696 341.68,216.53 345.5,219.5 Z"/></g>
<g><path style="opacity:0.004" fill="#250f25" d="M 197.5,220.5 C 202.5,224.833 207.167,229.5 211.5,234.5C 205.833,230.833 201.167,226.167 197.5,220.5 Z"/></g>
<g><path style="opacity:0.071" fill="#2c1322" d="M 127.5,220.5 C 138.238,220.402 144.071,225.735 145,236.5C 145.833,237.333 146.667,238.167 147.5,239C 157.086,240.42 166.753,240.92 176.5,240.5C 183.167,240.5 189.833,240.5 196.5,240.5C 185.012,241.495 173.345,241.828 161.5,241.5C 156.002,241.932 150.669,241.265 145.5,239.5C 144.196,228.533 138.196,222.2 127.5,220.5 Z"/></g>
<g><path style="opacity:0.388" fill="#331137" d="M 217.5,218.5 C 221.539,220.519 225.539,222.519 229.5,224.5C 224.327,224.57 220.327,222.57 217.5,218.5 Z"/></g>
<g><path style="opacity:0.129" fill="#221334" d="M 351.5,218.5 C 351.423,219.75 350.756,220.583 349.5,221C 339.324,222.011 333.657,227.511 332.5,237.5C 332.131,228.19 336.465,222.19 345.5,219.5C 347.621,219.675 349.621,219.341 351.5,218.5 Z"/></g>
<g><path style="opacity:0.557" fill="#3d0f4b" d="M 255.5,221.5 C 253.383,223.655 250.716,224.655 247.5,224.5C 249.936,223.129 252.603,222.129 255.5,221.5 Z"/></g>
<g><path style="opacity:0.999" fill="#af25d9" d="M 278.5,220.5 C 272.038,230.961 262.705,236.961 250.5,238.5C 248.801,238.66 247.134,238.494 245.5,238C 240.004,234.084 234.337,230.418 228.5,227C 229.793,226.51 231.127,226.343 232.5,226.5C 236.371,226.815 240.038,226.482 243.5,225.5C 244.568,224.566 245.901,224.232 247.5,224.5C 250.716,224.655 253.383,223.655 255.5,221.5C 257.027,221.573 258.027,220.906 258.5,219.5C 261.093,218.246 263.427,216.58 265.5,214.5C 266.583,214.461 267.583,214.127 268.5,213.5C 272.25,215.363 275.583,217.697 278.5,220.5 Z"/></g>
<g><path style="opacity:0.392" fill="#3d0e47" d="M 229.5,224.5 C 234.13,225.229 238.797,225.563 243.5,225.5C 240.038,226.482 236.371,226.815 232.5,226.5C 231.5,225.833 230.5,225.167 229.5,224.5 Z"/></g>
<g><path style="opacity:0.392" fill="#4c1743" d="M 158.5,225.5 C 171.087,226.48 183.754,226.813 196.5,226.5C 196.5,226.833 196.5,227.167 196.5,227.5C 183.833,227.5 171.167,227.5 158.5,227.5C 158.5,226.833 158.5,226.167 158.5,225.5 Z"/></g>
<g><path style="opacity:0.659" fill="#3a144e" d="M 317.5,225.5 C 317.167,226.167 316.833,226.833 316.5,227.5C 304.833,227.5 293.167,227.5 281.5,227.5C 281.5,231.833 281.5,236.167 281.5,240.5C 296.504,240.667 311.504,240.5 326.5,240C 327.745,239.209 329.078,238.709 330.5,238.5C 331.167,238.167 331.833,237.833 332.5,237.5C 331.64,239.614 329.973,240.78 327.5,241C 311.86,242.271 296.194,242.771 280.5,242.5C 280.5,237.167 280.5,231.833 280.5,226.5C 292.871,226.773 305.204,226.44 317.5,225.5 Z"/></g>
<g><path style="opacity:1" fill="#c441a7" d="M 158.5,227.5 C 171.167,227.5 183.833,227.5 196.5,227.5C 196.5,231.833 196.5,236.167 196.5,240.5C 189.833,240.5 183.167,240.5 176.5,240.5C 170.5,236.167 164.5,231.833 158.5,227.5 Z"/></g>
<g><path style="opacity:1" fill="#a433e1" d="M 316.5,227.5 C 321.105,229.471 325.438,231.971 329.5,235C 330.337,236.011 330.67,237.178 330.5,238.5C 329.078,238.709 327.745,239.209 326.5,240C 311.504,240.5 296.504,240.667 281.5,240.5C 281.5,236.167 281.5,231.833 281.5,227.5C 293.167,227.5 304.833,227.5 316.5,227.5 Z"/></g>
<g><path style="opacity:0.788" fill="#385d54" d="M 987.5,181.5 C 990.013,185.378 991.346,189.711 991.5,194.5C 991.5,208.167 991.5,221.833 991.5,235.5C 968.167,235.5 944.833,235.5 921.5,235.5C 944.327,234.502 967.327,234.169 990.5,234.5C 990.667,219.83 990.5,205.163 990,190.5C 988.57,187.647 987.737,184.647 987.5,181.5 Z"/></g>
<g><path style="opacity:0.157" fill="#1a0719" d="M 211.5,234.5 C 213.027,234.427 214.027,235.094 214.5,236.5C 212.973,236.573 211.973,235.906 211.5,234.5 Z"/></g>
<g><path style="opacity:1" fill="#8f4fe8" d="M 367.5,225.5 C 371.926,228.594 376.593,231.261 381.5,233.5C 381.824,240.354 381.491,247.021 380.5,253.5C 380.586,252.504 380.252,251.671 379.5,251C 375.615,248.275 371.615,245.775 367.5,243.5C 367.5,237.5 367.5,231.5 367.5,225.5 Z"/></g>
<g><path style="opacity:0.247" fill="#13211c" d="M 991.5,194.5 C 992.496,208.323 992.829,222.323 992.5,236.5C 969.167,236.5 945.833,236.5 922.5,236.5C 921.958,242.991 923.291,248.991 926.5,254.5C 924.827,253.657 923.66,252.324 923,250.5C 921.75,245.58 921.25,240.58 921.5,235.5C 944.833,235.5 968.167,235.5 991.5,235.5C 991.5,221.833 991.5,208.167 991.5,194.5 Z"/></g>
<g><path style="opacity:0.408" fill="#330f32" d="M 214.5,236.5 C 217.855,236.69 220.855,237.69 223.5,239.5C 220.084,239.472 217.084,238.472 214.5,236.5 Z"/></g>
<g><path style="opacity:0.467" fill="#612e2e" d="M 117.5,241.5 C 99.992,241.83 82.6586,241.497 65.5,240.5C 65.1667,240.5 64.8333,240.5 64.5,240.5C 64.5,235.833 64.5,231.167 64.5,226.5C 82.1667,226.5 99.8333,226.5 117.5,226.5C 117.5,231.5 117.5,236.5 117.5,241.5 Z"/></g>
<g><path style="opacity:1" fill="#d35f79" d="M 90.5,227.5 C 99.1667,227.5 107.833,227.5 116.5,227.5C 116.5,231.833 116.5,236.167 116.5,240.5C 114.833,240.5 113.167,240.5 111.5,240.5C 105.213,234.864 98.2127,230.531 90.5,227.5 Z"/></g>
<g><path style="opacity:1" fill="#da696d" d="M 65.5,228.5 C 73.6499,227.507 81.9832,227.174 90.5,227.5C 98.2127,230.531 105.213,234.864 111.5,240.5C 105.5,240.5 99.5,240.5 93.5,240.5C 88.245,236.195 82.5783,232.361 76.5,229C 72.8484,228.501 69.1817,228.335 65.5,228.5 Z"/></g>
<g><path style="opacity:1" fill="#e17264" d="M 65.5,228.5 C 69.1817,228.335 72.8484,228.501 76.5,229C 82.5783,232.361 88.245,236.195 93.5,240.5C 84.1667,240.5 74.8333,240.5 65.5,240.5C 65.5,236.5 65.5,232.5 65.5,228.5 Z"/></g>
<g><path style="opacity:0.045" fill="#020000" d="M 196.5,226.5 C 197.488,231.64 197.821,236.974 197.5,242.5C 185.322,242.828 173.322,242.495 161.5,241.5C 173.345,241.828 185.012,241.495 196.5,240.5C 196.5,236.167 196.5,231.833 196.5,227.5C 196.5,227.167 196.5,226.833 196.5,226.5 Z"/></g>
<g><path style="opacity:0.717" fill="#462e76" d="M 382.5,136.5 C 383.167,154.664 383.5,172.997 383.5,191.5C 383.706,216.893 383.039,242.226 381.5,267.5C 381.167,267.5 380.833,267.5 380.5,267.5C 380.5,262.833 380.5,258.167 380.5,253.5C 381.491,247.021 381.824,240.354 381.5,233.5C 381.5,224.833 381.5,216.167 381.5,207.5C 382.407,196.531 382.74,185.531 382.5,174.5C 382.5,167.5 382.5,160.5 382.5,153.5C 382.5,147.833 382.5,142.167 382.5,136.5 Z"/></g>
<g><path style="opacity:0.05" fill="#000000" d="M 64.5,240.5 C 64.8333,240.5 65.1667,240.5 65.5,240.5C 82.6586,241.497 99.992,241.83 117.5,241.5C 108.84,242.166 100.006,242.5 91,242.5C 81.8071,242.498 72.9738,241.832 64.5,240.5 Z"/></g>
<g><path style="opacity:1" fill="#db6f61" d="M 110.5,251.5 C 110.414,252.496 110.748,253.329 111.5,254C 113.473,254.495 115.473,254.662 117.5,254.5C 123.415,259.469 129.748,263.969 136.5,268C 135.584,268.278 134.918,268.778 134.5,269.5C 124.167,269.5 113.833,269.5 103.5,269.5C 101.5,269.5 99.5,269.5 97.5,269.5C 97.5,269.167 97.5,268.833 97.5,268.5C 103.842,268.666 110.175,268.5 116.5,268C 109.811,262.991 102.811,258.491 95.5,254.5C 95.5,252.5 95.5,250.5 95.5,248.5C 99.5138,248.334 103.514,248.501 107.5,249C 108.373,250.045 109.373,250.878 110.5,251.5 Z"/></g>
<g><path style="opacity:0.725" fill="#824336" d="M 94.5,247.5 C 99.1785,247.334 103.845,247.501 108.5,248C 109.823,248.816 110.489,249.983 110.5,251.5C 109.373,250.878 108.373,250.045 107.5,249C 103.514,248.501 99.5138,248.334 95.5,248.5C 95.5,250.5 95.5,252.5 95.5,254.5C 95.5,257.5 95.5,260.5 95.5,263.5C 94.5119,258.36 94.1786,253.026 94.5,247.5 Z"/></g>
<g><path style="opacity:0.249" fill="#492224" d="M 110.5,251.5 C 119.696,253.273 129.029,253.939 138.5,253.5C 138.5,253.833 138.5,254.167 138.5,254.5C 132.167,254.5 125.833,254.5 119.5,254.5C 118.833,254.5 118.167,254.5 117.5,254.5C 115.473,254.662 113.473,254.495 111.5,254C 110.748,253.329 110.414,252.496 110.5,251.5 Z"/></g>
<g><path style="opacity:1" fill="#e47958" d="M 95.5,254.5 C 102.811,258.491 109.811,262.991 116.5,268C 110.175,268.5 103.842,268.666 97.5,268.5C 96.4625,267.07 95.7959,265.403 95.5,263.5C 95.5,260.5 95.5,257.5 95.5,254.5 Z"/></g>
<g><path style="opacity:1" fill="#dd6971" d="M 117.5,254.5 C 118.167,254.5 118.833,254.5 119.5,254.5C 124.985,255.327 130.652,255.827 136.5,256C 143.071,260.755 149.738,265.255 156.5,269.5C 149.167,269.5 141.833,269.5 134.5,269.5C 134.918,268.778 135.584,268.278 136.5,268C 129.748,263.969 123.415,259.469 117.5,254.5 Z"/></g>
<g><path style="opacity:1" fill="#d15e79" d="M 119.5,254.5 C 125.833,254.5 132.167,254.5 138.5,254.5C 146.167,254.5 153.833,254.5 161.5,254.5C 160.048,255.302 158.382,255.802 156.5,256C 163.617,259.972 170.284,264.472 176.5,269.5C 169.833,269.5 163.167,269.5 156.5,269.5C 149.738,265.255 143.071,260.755 136.5,256C 130.652,255.827 124.985,255.327 119.5,254.5 Z"/></g>
<g><path style="opacity:1" fill="#c65087" d="M 161.5,254.5 C 180.5,254.5 199.5,254.5 218.5,254.5C 218.5,254.833 218.5,255.167 218.5,255.5C 216.5,255.5 214.5,255.5 212.5,255.5C 205.825,255.334 199.158,255.5 192.5,256C 198.897,260.727 205.564,265.06 212.5,269C 219.158,269.5 225.825,269.666 232.5,269.5C 233.833,269.5 235.167,269.5 236.5,269.5C 236.5,269.833 236.5,270.167 236.5,270.5C 216.482,270.745 196.482,270.412 176.5,269.5C 170.284,264.472 163.617,259.972 156.5,256C 158.382,255.802 160.048,255.302 161.5,254.5 Z"/></g>
<g><path style="opacity:1" fill="#cb48a3" d="M 212.5,255.5 C 219.167,260.167 225.833,264.833 232.5,269.5C 225.825,269.666 219.158,269.5 212.5,269C 205.564,265.06 198.897,260.727 192.5,256C 199.158,255.5 205.825,255.334 212.5,255.5 Z"/></g>
<g><path style="opacity:1" fill="#c63fb0" d="M 212.5,255.5 C 214.5,255.5 216.5,255.5 218.5,255.5C 223.179,255.334 227.845,255.501 232.5,256C 239.405,260.275 246.072,264.775 252.5,269.5C 247.167,269.5 241.833,269.5 236.5,269.5C 235.167,269.5 233.833,269.5 232.5,269.5C 225.833,264.833 219.167,260.167 212.5,255.5 Z"/></g>
<g><path style="opacity:1" fill="#ab30ad" d="M 218.5,255.5 C 218.5,255.167 218.5,254.833 218.5,254.5C 268.167,254.5 317.833,254.5 367.5,254.5C 361.355,255.49 355.022,255.823 348.5,255.5C 328.5,255.5 308.5,255.5 288.5,255.5C 282.5,255.5 276.5,255.5 270.5,255.5C 263.825,255.334 257.158,255.5 250.5,256C 257.405,260.275 264.072,264.775 270.5,269.5C 264.5,269.5 258.5,269.5 252.5,269.5C 246.072,264.775 239.405,260.275 232.5,256C 227.845,255.501 223.179,255.334 218.5,255.5 Z"/></g>
<g><path style="opacity:1" fill="#be2fc8" d="M 270.5,255.5 C 276.833,260.167 283.167,264.833 289.5,269.5C 283.167,269.5 276.833,269.5 270.5,269.5C 264.072,264.775 257.405,260.275 250.5,256C 257.158,255.5 263.825,255.334 270.5,255.5 Z"/></g>
<g><path style="opacity:1" fill="#b927d5" d="M 270.5,255.5 C 276.5,255.5 282.5,255.5 288.5,255.5C 294.89,260.556 301.557,265.223 308.5,269.5C 302.167,269.5 295.833,269.5 289.5,269.5C 283.167,264.833 276.833,260.167 270.5,255.5 Z"/></g>
<g><path style="opacity:1" fill="#aa2ee1" d="M 288.5,255.5 C 308.5,255.5 328.5,255.5 348.5,255.5C 354.5,259.833 360.5,264.167 366.5,268.5C 347.179,269.326 327.845,269.659 308.5,269.5C 301.557,265.223 294.89,260.556 288.5,255.5 Z"/></g>
<g><path style="opacity:1" fill="#9d3ee5" d="M 367.5,243.5 C 371.615,245.775 375.615,248.275 379.5,251C 380.252,251.671 380.586,252.504 380.5,253.5C 380.5,258.167 380.5,262.833 380.5,267.5C 378.052,268.473 375.385,268.806 372.5,268.5C 370.5,268.5 368.5,268.5 366.5,268.5C 360.5,264.167 354.5,259.833 348.5,255.5C 355.022,255.823 361.355,255.49 367.5,254.5C 367.5,250.833 367.5,247.167 367.5,243.5 Z"/></g>
<g><path style="opacity:0.137" fill="#20110b" d="M 94.5,247.5 C 94.1786,253.026 94.5119,258.36 95.5,263.5C 95.7959,265.403 96.4625,267.07 97.5,268.5C 97.5,268.833 97.5,269.167 97.5,269.5C 96.5041,269.586 95.6708,269.252 95,268.5C 93.3118,261.389 93.1451,254.389 94.5,247.5 Z"/></g>
<g><path style="opacity:0.037" fill="#050a08" d="M 926.5,254.5 C 929.293,257.403 932.626,259.569 936.5,261C 952.672,261.169 968.672,261.669 984.5,262.5C 968.5,262.5 952.5,262.5 936.5,262.5C 931.951,261.241 928.618,258.574 926.5,254.5 Z"/></g>
<g><path style="opacity:0.573" fill="#233834" d="M 936.5,262.5 C 952.5,262.5 968.5,262.5 984.5,262.5C 984.5,270.833 984.5,279.167 984.5,287.5C 968.497,287.667 952.497,287.5 936.5,287C 934.292,286.809 932.292,286.309 930.5,285.5C 948.167,285.5 965.833,285.5 983.5,285.5C 983.5,278.167 983.5,270.833 983.5,263.5C 967.658,263.83 951.991,263.496 936.5,262.5 Z"/></g>
<g><path style="opacity:0.282" fill="#162420" d="M 1100.5,257.5 C 1095.95,255.626 1091.62,253.293 1087.5,250.5C 1084.96,253.719 1082.3,256.886 1079.5,260C 1072.43,265.298 1064.43,266.964 1055.5,265C 1052.45,264.484 1050.12,262.984 1048.5,260.5C 1064.99,268.281 1077.82,264.281 1087,248.5C 1091.82,251.151 1096.32,254.151 1100.5,257.5 Z"/></g>
<g><path style="opacity:0.033" fill="#0b1210" d="M 1100.5,257.5 C 1103.55,258.016 1105.88,259.516 1107.5,262C 1106.44,265.293 1104.78,268.126 1102.5,270.5C 1103.49,267.849 1104.49,265.183 1105.5,262.5C 1104.04,260.607 1102.37,258.941 1100.5,257.5 Z"/></g>
<g><path style="opacity:0.584" fill="#6f1a7e" d="M 366.5,268.5 C 368.5,268.5 370.5,268.5 372.5,268.5C 367.5,269.167 362.5,269.833 357.5,270.5C 348.5,270.5 339.5,270.5 330.5,270.5C 299.167,270.5 267.833,270.5 236.5,270.5C 236.5,270.167 236.5,269.833 236.5,269.5C 241.833,269.5 247.167,269.5 252.5,269.5C 258.5,269.5 264.5,269.5 270.5,269.5C 276.833,269.5 283.167,269.5 289.5,269.5C 295.833,269.5 302.167,269.5 308.5,269.5C 327.845,269.659 347.179,269.326 366.5,268.5 Z"/></g>
<g><path style="opacity:0.153" fill="#1d0c29" d="M 380.5,267.5 C 380.833,267.5 381.167,267.5 381.5,267.5C 380.666,268.748 379.333,269.415 377.5,269.5C 370.859,270.332 364.192,270.665 357.5,270.5C 362.5,269.833 367.5,269.167 372.5,268.5C 375.385,268.806 378.052,268.473 380.5,267.5 Z"/></g>
<g><path style="opacity:0.259" fill="#341525" d="M 103.5,269.5 C 113.833,269.5 124.167,269.5 134.5,269.5C 141.833,269.5 149.167,269.5 156.5,269.5C 163.167,269.5 169.833,269.5 176.5,269.5C 196.482,270.412 216.482,270.745 236.5,270.5C 267.833,270.5 299.167,270.5 330.5,270.5C 300.169,271.167 269.669,271.5 239,271.5C 193.657,271.674 148.49,271.007 103.5,269.5 Z"/></g>
<g><path style="opacity:0.004" fill="#09100f" d="M 904.5,267.5 C 907.392,270.271 910.058,273.271 912.5,276.5C 908.689,274.564 906.022,271.564 904.5,267.5 Z"/></g>
<g><path style="opacity:0.129" fill="#0e1512" d="M 912.5,276.5 C 914.749,277.08 916.415,278.413 917.5,280.5C 915.251,279.92 913.585,278.587 912.5,276.5 Z"/></g>
<g><path style="opacity:0.725" fill="#1a2a27" d="M 917.5,280.5 C 922.207,281.36 926.541,283.027 930.5,285.5C 925.57,285.193 921.237,283.527 917.5,280.5 Z"/></g>
<g><path style="opacity:0.036" fill="#1b100a" d="M 144.5,283.5 C 144.5,283.833 144.5,284.167 144.5,284.5C 144.21,288.936 144.71,293.27 146,297.5C 150.066,298.464 154.233,298.797 158.5,298.5C 154.1,299.823 149.6,299.823 145,298.5C 143.259,293.434 143.092,288.434 144.5,283.5 Z"/></g>
<g><path style="opacity:0.412" fill="#5c2e28" d="M 144.5,284.5 C 144.5,284.167 144.5,283.833 144.5,283.5C 149.833,283.5 155.167,283.5 160.5,283.5C 160.817,287.702 160.483,291.702 159.5,295.5C 159.5,291.833 159.5,288.167 159.5,284.5C 154.5,284.5 149.5,284.5 144.5,284.5 Z"/></g>
<g><path style="opacity:0.033" fill="#1b0d13" d="M 230.5,283.5 C 231.814,285.915 232.481,288.748 232.5,292C 232.481,295.252 231.814,298.085 230.5,300.5C 230.5,300.167 230.5,299.833 230.5,299.5C 230.5,294.5 230.5,289.5 230.5,284.5C 230.5,284.167 230.5,283.833 230.5,283.5 Z"/></g>
<g><path style="opacity:0.549" fill="#172420" d="M 1036.5,282.5 C 1042.1,284.287 1047.77,286.121 1053.5,288C 1060.49,288.5 1067.49,288.666 1074.5,288.5C 1062.63,290.591 1050.96,289.424 1039.5,285C 1038.06,284.623 1037.06,283.79 1036.5,282.5 Z"/></g>
<g><path style="opacity:0.408" fill="#422416" d="M 120.5,299.5 C 123.833,299.5 127.167,299.5 130.5,299.5C 130.5,294.5 130.5,289.5 130.5,284.5C 115.825,281.486 111.825,286.486 118.5,299.5C 116.983,299.489 115.816,298.823 115,297.5C 114.333,293.5 114.333,289.5 115,285.5C 115.5,285 116,284.5 116.5,284C 121.489,283.501 126.489,283.334 131.5,283.5C 131.5,289.167 131.5,294.833 131.5,300.5C 127.629,300.815 123.962,300.482 120.5,299.5 Z"/></g>
<g><path style="opacity:1" fill="#d7676e" d="M 174.5,285.5 C 177.187,285.336 179.854,285.503 182.5,286C 188.5,290 194.5,294 200.5,298C 203.817,298.498 207.15,298.665 210.5,298.5C 210.5,298.833 210.5,299.167 210.5,299.5C 198.5,299.5 186.5,299.5 174.5,299.5C 174.5,294.833 174.5,290.167 174.5,285.5 Z"/></g>
<g><path style="opacity:1" fill="#d8617d" d="M 174.5,285.5 C 180.645,284.51 186.978,284.177 193.5,284.5C 196.305,285.319 199.305,285.819 202.5,286C 208.5,290 214.5,294 220.5,298C 217.183,298.498 213.85,298.665 210.5,298.5C 207.15,298.665 203.817,298.498 200.5,298C 194.5,294 188.5,290 182.5,286C 179.854,285.503 177.187,285.336 174.5,285.5 Z"/></g>
<g><path style="opacity:1" fill="#d15789" d="M 193.5,284.5 C 205.833,284.5 218.167,284.5 230.5,284.5C 230.5,289.5 230.5,294.5 230.5,299.5C 223.833,299.5 217.167,299.5 210.5,299.5C 210.5,299.167 210.5,298.833 210.5,298.5C 213.85,298.665 217.183,298.498 220.5,298C 214.5,294 208.5,290 202.5,286C 199.305,285.819 196.305,285.319 193.5,284.5 Z"/></g>
<g><path style="opacity:0.655" fill="#2e4b45" d="M 555.5,262.5 C 563.5,262.5 571.5,262.5 579.5,262.5C 572.018,263.492 564.352,263.825 556.5,263.5C 556.5,270.833 556.5,278.167 556.5,285.5C 579.5,285.5 602.5,285.5 625.5,285.5C 625.5,278.167 625.5,270.833 625.5,263.5C 626.492,270.982 626.825,278.648 626.5,286.5C 602.833,286.5 579.167,286.5 555.5,286.5C 555.5,278.5 555.5,270.5 555.5,262.5 Z"/></g>
<g><path style="opacity:0.141" fill="#050a0a" d="M 603.5,261.5 C 611.5,261.5 619.5,261.5 627.5,261.5C 627.5,270.167 627.5,278.833 627.5,287.5C 603.328,287.831 579.328,287.498 555.5,286.5C 579.167,286.5 602.833,286.5 626.5,286.5C 626.825,278.648 626.492,270.982 625.5,263.5C 618.167,262.833 610.833,262.167 603.5,261.5 Z"/></g>
<g><path style="opacity:0.184" fill="#141f1c" d="M 1091.5,281.5 C 1086.94,285.442 1081.61,287.775 1075.5,288.5C 1080.75,286.211 1086.09,283.878 1091.5,281.5 Z"/></g>
<g><path style="opacity:1" fill="#e48046" d="M 120.5,299.5 C 119.833,299.5 119.167,299.5 118.5,299.5C 111.825,286.486 115.825,281.486 130.5,284.5C 130.5,289.5 130.5,294.5 130.5,299.5C 127.167,299.5 123.833,299.5 120.5,299.5 Z"/></g>
<g><path style="opacity:1" fill="#dc7458" d="M 144.5,284.5 C 149.5,284.5 154.5,284.5 159.5,284.5C 159.5,288.167 159.5,291.833 159.5,295.5C 159.737,296.791 159.404,297.791 158.5,298.5C 154.233,298.797 150.066,298.464 146,297.5C 144.71,293.27 144.21,288.936 144.5,284.5 Z"/></g>
<g><path style="opacity:0.345" fill="#50232d" d="M 230.5,283.5 C 230.5,283.833 230.5,284.167 230.5,284.5C 218.167,284.5 205.833,284.5 193.5,284.5C 186.978,284.177 180.645,284.51 174.5,285.5C 174.5,290.167 174.5,294.833 174.5,299.5C 186.5,299.5 198.5,299.5 210.5,299.5C 217.167,299.5 223.833,299.5 230.5,299.5C 230.5,299.833 230.5,300.167 230.5,300.5C 211.5,300.5 192.5,300.5 173.5,300.5C 173.5,294.833 173.5,289.167 173.5,283.5C 192.5,283.5 211.5,283.5 230.5,283.5 Z"/></g>
</svg>
