<svg width="24" height="24" viewBox="0 0 24 24" fill="none" xmlns="http://www.w3.org/2000/svg">
<path fill-rule="evenodd" clip-rule="evenodd" d="M17.4805 17.1104C17.4295 17.5404 17.0705 17.8604 16.6505 17.8604C16.2195 17.8604 15.8605 17.5404 15.8205 17.1104V13.8304C15.7805 13.5094 15.9295 13.2104 16.2005 13.0404C16.4805 12.8704 16.8205 12.8704 17.0895 13.0404C17.3605 13.2104 17.5095 13.5094 17.4805 13.8304V17.1104ZM12.8795 17.1104C12.8395 17.5404 12.4805 17.8604 12.0495 17.8604C11.6295 17.8604 11.2705 17.5404 11.2195 17.1104V6.9204C11.1905 6.6104 11.3395 6.2994 11.6105 6.1304C11.8795 5.9604 12.2195 5.9604 12.5005 6.1304C12.7705 6.2994 12.9195 6.6104 12.8795 6.9204V17.1104ZM8.21949 17.1104C8.17949 17.5404 7.82049 17.8604 7.38949 17.8604C6.95949 17.8604 6.59949 17.5404 6.56049 17.1104V10.2004C6.53049 9.8894 6.67949 9.5804 6.95049 9.4104C7.21949 9.2404 7.56049 9.2404 7.83049 9.4104C8.09949 9.5804 8.25049 9.8894 8.21949 10.2004V17.1104ZM16.6695 2.0004H7.33049C3.92949 2.0004 2.00049 3.9294 2.00049 7.3304V16.6704C2.00049 20.0704 3.92949 22.0004 7.33049 22.0004H16.6695C20.0705 22.0004 22.0005 20.0704 22.0005 16.6704V7.3304C21.9905 3.9294 20.0705 2.0004 16.6695 2.0004Z" fill="#355DFF"/>
</svg>
