<svg width="24" height="24" viewBox="0 0 24 24" fill="none" xmlns="http://www.w3.org/2000/svg">
<path fill-rule="evenodd" clip-rule="evenodd" d="M9.42508 15.446C9.66517 15.446 9.88525 15.356 10.0453 15.186L15.1872 10.047C15.5273 9.707 15.5273 9.146 15.1872 8.806C14.847 8.467 14.2969 8.467 13.9567 8.806L8.81486 13.946C8.47474 14.286 8.47474 14.846 8.81486 15.186C8.97492 15.356 9.195 15.446 9.42508 15.446ZM13.6966 14.566C13.6966 15.056 14.0868 15.446 14.577 15.446C15.0571 15.446 15.4473 15.056 15.4473 14.566C15.4473 14.087 15.0571 13.696 14.577 13.696C14.0868 13.696 13.6966 14.087 13.6966 14.566ZM9.43509 8.556C9.91526 8.556 10.3054 8.946 10.3054 9.426C10.3054 9.917 9.91526 10.306 9.43509 10.306C8.95491 10.306 8.55477 9.917 8.55477 9.426C8.55477 8.946 8.95491 8.556 9.43509 8.556V8.556ZM21.1193 9.866L20.3991 9.146C20.119 8.866 19.9589 8.486 19.9589 8.087V7.056C19.9589 5.396 18.6084 4.047 16.9478 4.047H15.9174C15.5173 4.047 15.1372 3.886 14.8571 3.606L14.1268 2.877C12.9464 1.707 11.0357 1.707 9.86524 2.886L9.14498 3.606C8.86488 3.886 8.48474 4.047 8.0846 4.047H7.05423C5.39362 4.047 4.04313 5.396 4.04313 7.056V8.076C4.04313 8.486 3.88308 8.866 3.60297 9.146L2.87271 9.877C1.70229 11.056 1.71229 12.967 2.88271 14.136L3.60297 14.846C3.88308 15.136 4.04313 15.516 4.04313 15.917V16.946C4.04313 18.606 5.39362 19.957 7.05423 19.957H8.0846C8.48474 19.957 8.86488 20.116 9.14498 20.396L9.87525 21.127C10.4655 21.707 11.2357 21.996 12.006 21.996C12.7763 21.996 13.5466 21.707 14.1368 21.116L14.8571 20.396C15.1372 20.116 15.5173 19.957 15.9174 19.957H16.9478C18.6084 19.957 19.9589 18.606 19.9589 16.946V15.917C19.9589 15.516 20.119 15.136 20.3991 14.856L21.1093 14.146C21.1193 14.136 21.1293 14.127 21.1393 14.116C21.6995 13.547 22.0096 12.786 21.9996 11.986C21.9996 11.186 21.6895 10.426 21.1193 9.866V9.866Z" fill="#355DFF"/>
</svg>
