<svg width="25" height="24" viewBox="0 0 25 24" fill="none" xmlns="http://www.w3.org/2000/svg">
<path fill-rule="evenodd" clip-rule="evenodd" d="M18.6961 8.3818H22.9272C22.9272 4.98459 20.8916 3 17.4427 3H8.41163C4.96274 3 2.92719 4.98459 2.92719 8.33847V15.6615C2.92719 19.0154 4.96274 21 8.41163 21H17.4427C20.8916 21 22.9272 19.0154 22.9272 15.6615V15.3495H18.6961C16.7324 15.3495 15.1405 13.7975 15.1405 11.883C15.1405 9.96849 16.7324 8.41647 18.6961 8.41647V8.3818ZM18.6961 9.87241H22.1805C22.5929 9.87241 22.9272 10.1983 22.9272 10.6004V13.131C22.9224 13.5311 22.5909 13.8543 22.1805 13.8589H18.7761C17.782 13.872 16.9127 13.2084 16.6872 12.2643C16.5743 11.6783 16.7328 11.0736 17.1203 10.6122C17.5077 10.1509 18.0845 9.88007 18.6961 9.87241ZM18.8472 12.533H19.1761C19.5983 12.533 19.9405 12.1993 19.9405 11.7877C19.9405 11.3761 19.5983 11.0424 19.1761 11.0424H18.8472C18.6453 11.0401 18.4508 11.1166 18.3072 11.255C18.1635 11.3934 18.0827 11.5821 18.0827 11.779C18.0827 12.1921 18.4236 12.5282 18.8472 12.533ZM7.66496 8.3818H13.3094C13.7316 8.3818 14.0739 8.04812 14.0739 7.63649C14.0739 7.22487 13.7316 6.89119 13.3094 6.89119H7.66496C7.24622 6.89116 6.90539 7.2196 6.90052 7.62783C6.90049 8.04087 7.24134 8.37705 7.66496 8.3818Z" fill="#355DFF"/>
</svg>
