<svg width="20" height="20" viewBox="0 0 20 20" fill="none" xmlns="http://www.w3.org/2000/svg">
<path d="M2.79426 5.05581C2.79426 3.80681 3.80726 2.79381 5.05526 2.79381H6.08426C6.68026 2.79381 7.25326 2.55781 7.67726 2.13681L8.39626 1.41681C9.27726 0.531807 10.7093 0.527807 11.5943 1.40881L11.6033 1.41681L12.3233 2.13681C12.7463 2.55781 13.3193 2.79381 13.9163 2.79381H14.9443C16.1933 2.79381 17.2063 3.80681 17.2063 5.05581V6.08281C17.2063 6.68081 17.4423 7.25281 17.8633 7.67681L18.5833 8.39681C19.4683 9.27781 19.4733 10.7088 18.5923 11.5948L18.5833 11.6038L17.8633 12.3238C17.4423 12.7458 17.2063 13.3198 17.2063 13.9158V14.9448C17.2063 16.1938 16.1933 17.2058 14.9443 17.2058H13.9163C13.3193 17.2058 12.7463 17.4428 12.3233 17.8638L11.6033 18.5828C10.7233 19.4688 9.29126 19.4728 8.40526 18.5918C8.40226 18.5888 8.39926 18.5858 8.39626 18.5828L7.67726 17.8638C7.25326 17.4428 6.68026 17.2058 6.08426 17.2058H5.05526C3.80726 17.2058 2.79426 16.1938 2.79426 14.9448V13.9158C2.79426 13.3198 2.55726 12.7458 2.13626 12.3238L1.41726 11.6038C0.531256 10.7228 0.527256 9.29081 1.40826 8.40581L1.41726 8.39681L2.13626 7.67681C2.55726 7.25281 2.79426 6.68081 2.79426 6.08281V5.05581" stroke="#808191" stroke-width="1.5" stroke-linecap="round" stroke-linejoin="round"/>
<path opacity="0.5" d="M7.42993 12.5695L12.5699 7.4295" stroke="#808191" stroke-width="1.5" stroke-linecap="round" stroke-linejoin="round"/>
<path opacity="0.5" d="M12.5667 13.3224C12.3667 13.3224 12.1767 13.2424 12.0367 13.1024C11.9667 13.0324 11.9167 12.9424 11.8767 12.8524C11.8367 12.7624 11.8167 12.6734 11.8167 12.5724C11.8167 12.4724 11.8367 12.3724 11.8767 12.2824C11.9167 12.1924 11.9667 12.1124 12.0367 12.0424C12.3167 11.7624 12.8167 11.7624 13.0967 12.0424C13.1667 12.1124 13.2267 12.1924 13.2667 12.2824C13.2967 12.3724 13.3167 12.4724 13.3167 12.5724C13.3167 12.6734 13.2967 12.7624 13.2667 12.8524C13.2267 12.9424 13.1667 13.0324 13.0967 13.1024C12.9567 13.2424 12.7667 13.3224 12.5667 13.3224Z" fill="#808191"/>
<path opacity="0.5" d="M7.42651 8.18281C7.32651 8.18281 7.23651 8.16181 7.14651 8.12181C7.05651 8.08181 6.96651 8.03281 6.89651 7.96281C6.82651 7.88281 6.77651 7.80281 6.73651 7.71281C6.69651 7.62181 6.67651 7.53281 6.67651 7.43281C6.67651 7.33181 6.69651 7.23281 6.73651 7.14281C6.77651 7.05281 6.82651 6.96281 6.89651 6.90281C7.18651 6.62181 7.67651 6.62181 7.95651 6.90281C8.09651 7.04181 8.17651 7.23281 8.17651 7.43281C8.17651 7.53281 8.16651 7.62181 8.12651 7.71281C8.08651 7.80281 8.02651 7.88281 7.95651 7.96281C7.88651 8.03281 7.80651 8.08181 7.71651 8.12181C7.62651 8.16181 7.52651 8.18281 7.42651 8.18281Z" fill="#808191"/>
</svg>
